<svg xmlns="http://www.w3.org/2000/svg" xmlns:xlink="http://www.w3.org/1999/xlink" viewBox="0 0 1921 1080"><defs><style>.cls-1{isolation:isolate;}.cls-2{fill:url(#Gradiente_sem_nome_37);}.cls-3{fill:#c79745;}.cls-4{fill:#e59f65;}.cls-5{fill:#e9866c;}.cls-6{fill:#e56231;}.cls-7{fill:#857660;}.cls-8{fill:#e79e67;}.cls-9{fill:#857662;}.cls-10{fill:#6a8145;}.cls-11{fill:#917f63;}.cls-12{fill:#f5be61;}.cls-13{fill:#e7dbc4;}.cls-14{fill:#ebf4f1;}.cls-15{fill:#d66a56;}.cls-16{fill:#e5d8b8;}.cls-17{fill:#e4d2b6;}.cls-18{fill:#927d60;}.cls-19{fill:#bcd1a4;}.cls-20{fill:#9ccdd1;}.cls-21{fill:#f0f8ee;}.cls-22{fill:#908063;}.cls-23{fill:#9c27b0;}.cls-24{fill:#c6cc38;}.cls-25{fill:#9eb121;}.cls-26{fill:#432416;}.cls-27{fill:#b5bc2a;}.cls-28{fill:#777;}.cls-29{fill:#9b9b9b;}.cls-30{fill:#8f9b1e;}.cls-31{fill:#777c19;}.cls-32{fill:#dbecf6;}.cls-33{fill:#92abb0;}.cls-34{fill:#4390ba;}.cls-35,.cls-65{fill:#fff;}.cls-36{fill:#99c5e1;}.cls-37{fill:#1e1e1e;}.cls-38{fill:#dd1712;}.cls-39{fill:#003472;}.cls-40{fill:#848484;}.cls-41{fill:#a30404;}.cls-42{fill:#ededed;}.cls-43{fill:#ffe000;}.cls-44{fill:#bcbc35;}.cls-45{fill:#684000;}.cls-46{fill:#bfbfbf;}.cls-47{fill:#e76b5c;}.cls-48{fill:#76a9bf;}.cls-49{fill:#5b3006;}.cls-50{fill:#723f08;}.cls-51{fill:#a0632b;}.cls-52{fill:#d79a56;}.cls-53{fill:#db9c57;}.cls-54{fill:#703f08;}.cls-55{fill:#ecddb6;}.cls-56{fill:#f26746;}.cls-57{fill:#d72f25;}.cls-58{fill:#e94f43;}.cls-59{fill:#ef9d63;}.cls-60{fill:#f47a6b;}.cls-61{fill:#538ac0;}.cls-62{fill:#ef4c47;}.cls-63{fill:#dd3228;}.cls-64{fill:#518cbc;}.cls-65{stroke:#000;stroke-miterlimit:10;stroke-width:0.25px;}.cls-66{fill:#f6e359;}.cls-67,.cls-71{fill:#293430;}.cls-68{fill:#9e9e9e;}.cls-69{fill:#c2272d;}.cls-70{fill:#2e2528;}.cls-71{opacity:0.5;mix-blend-mode:multiply;}</style><linearGradient id="Gradiente_sem_nome_37" x1="1" y1="540" x2="1921" y2="540" gradientUnits="userSpaceOnUse"><stop offset="0" stop-color="#15f9ff"/><stop offset="1" stop-color="#15b0ff"/></linearGradient></defs><title>Ativo 5</title><g class="cls-1"><g id="Camada_2" data-name="Camada 2"><g id="Camada_1-2" data-name="Camada 1"><rect class="cls-2" x="1" width="1920" height="1080"/><rect class="cls-3" x="139.19" y="622.11" width="62.77" height="195.85"/><rect class="cls-4" x="263.48" y="599.52" width="62.77" height="218.45"/><rect class="cls-5" x="519.59" y="574.41" width="51.47" height="243.56"/><polygon class="cls-6" points="107.81 709.52 81.44 745.15 81.44 817.97 134.17 817.97 134.17 745.15 107.81 709.52"/><polygon class="cls-7" points="60.97 703.2 32.86 703.2 22.44 720.04 22.44 817.97 71.4 817.97 71.4 720.04 60.97 703.2"/><polygon class="cls-8" points="495.36 682.38 467.25 682.38 456.82 702.28 456.82 817.97 505.78 817.97 505.78 702.28 495.36 682.38"/><polygon class="cls-9" points="247.16 606.99 247.16 572.31 234.61 572.31 234.61 538 229.59 538 229.59 572.31 217.03 572.31 217.03 606.99 206.99 606.99 206.99 817.97 257.21 817.97 257.21 606.99 247.16 606.99"/><polygon class="cls-10" points="380.24 654.76 380.24 642.2 374.59 642.2 374.59 629.65 343.2 629.65 343.2 642.2 337.55 642.2 337.55 654.76 332.53 654.76 332.53 817.97 385.26 817.97 385.26 654.76 380.24 654.76"/><polygon class="cls-11" points="443.01 538 443.01 817.97 392.79 817.97 392.79 603.39 443.01 538"/><polygon class="cls-12" points="608.73 708.22 582.37 742.64 582.37 817.97 635.1 817.97 635.1 742.64 608.73 708.22"/><rect class="cls-13" x="27.46" y="732.59" width="10.04" height="16.32"/><rect class="cls-13" x="41.27" y="732.59" width="10.04" height="16.32"/><rect class="cls-13" x="55.08" y="732.59" width="10.04" height="16.32"/><rect class="cls-14" x="85.84" y="748.92" width="11.3" height="21.34"/><rect class="cls-14" x="102.16" y="748.92" width="11.3" height="21.34"/><rect class="cls-14" x="118.48" y="748.92" width="11.3" height="21.34"/><rect class="cls-14" x="85.84" y="779.05" width="11.3" height="21.34"/><rect class="cls-14" x="102.16" y="779.05" width="11.3" height="21.34"/><rect class="cls-14" x="118.48" y="779.05" width="11.3" height="21.34"/><rect class="cls-13" x="27.46" y="755.19" width="10.04" height="16.32"/><rect class="cls-13" x="41.27" y="755.19" width="10.04" height="16.32"/><rect class="cls-13" x="55.08" y="755.19" width="10.04" height="16.32"/><rect class="cls-13" x="27.46" y="777.79" width="10.04" height="16.32"/><rect class="cls-13" x="41.27" y="777.79" width="10.04" height="16.32"/><rect class="cls-13" x="55.08" y="777.79" width="10.04" height="16.32"/><rect class="cls-15" x="139.19" y="622.11" width="62.77" height="15.07"/><rect class="cls-16" x="145.47" y="652.25" width="20.09" height="15.07"/><rect class="cls-16" x="175.6" y="652.25" width="20.09" height="15.07"/><rect class="cls-17" x="209.5" y="609.56" width="21.34" height="15.07"/><rect class="cls-17" x="233.35" y="609.56" width="21.34" height="15.07"/><rect class="cls-17" x="209.5" y="627.14" width="21.34" height="15.07"/><rect class="cls-17" x="233.35" y="627.14" width="21.34" height="15.07"/><rect class="cls-17" x="209.5" y="644.71" width="21.34" height="15.07"/><rect class="cls-17" x="233.35" y="644.71" width="21.34" height="15.07"/><rect class="cls-17" x="209.5" y="662.29" width="21.34" height="15.07"/><rect class="cls-17" x="233.35" y="662.29" width="21.34" height="15.07"/><rect class="cls-17" x="209.5" y="679.87" width="21.34" height="15.07"/><rect class="cls-17" x="233.35" y="679.87" width="21.34" height="15.07"/><rect class="cls-17" x="209.5" y="697.44" width="21.34" height="15.07"/><rect class="cls-17" x="233.35" y="697.44" width="21.34" height="15.07"/><rect class="cls-17" x="209.5" y="715.02" width="21.34" height="15.07"/><rect class="cls-17" x="233.35" y="715.02" width="21.34" height="15.07"/><rect class="cls-17" x="209.5" y="732.59" width="21.34" height="15.07"/><rect class="cls-17" x="233.35" y="732.59" width="21.34" height="15.07"/><rect class="cls-17" x="209.5" y="750.17" width="21.34" height="15.07"/><rect class="cls-17" x="233.35" y="750.17" width="21.34" height="15.07"/><rect class="cls-17" x="209.5" y="767.75" width="21.34" height="15.07"/><rect class="cls-17" x="233.35" y="767.75" width="21.34" height="15.07"/><rect class="cls-17" x="209.5" y="785.32" width="21.34" height="15.07"/><rect class="cls-17" x="233.35" y="785.32" width="21.34" height="15.07"/><rect class="cls-16" x="145.47" y="676.1" width="20.09" height="15.07"/><rect class="cls-16" x="175.6" y="676.1" width="20.09" height="15.07"/><rect class="cls-16" x="145.47" y="699.95" width="20.09" height="15.07"/><rect class="cls-16" x="175.6" y="699.95" width="20.09" height="15.07"/><rect class="cls-16" x="145.47" y="723.81" width="20.09" height="15.07"/><rect class="cls-16" x="175.6" y="723.81" width="20.09" height="15.07"/><rect class="cls-16" x="145.47" y="747.66" width="20.09" height="15.07"/><rect class="cls-16" x="175.6" y="747.66" width="20.09" height="15.07"/><rect class="cls-16" x="145.47" y="771.51" width="20.09" height="15.07"/><rect class="cls-16" x="175.6" y="771.51" width="20.09" height="15.07"/><rect class="cls-16" x="145.47" y="795.37" width="20.09" height="15.07"/><rect class="cls-16" x="175.6" y="795.37" width="20.09" height="15.07"/><rect class="cls-18" x="268.5" y="605.79" width="51.47" height="8.79"/><rect class="cls-18" x="268.5" y="618.35" width="51.47" height="8.79"/><rect class="cls-18" x="268.5" y="630.9" width="51.47" height="8.79"/><rect class="cls-18" x="268.5" y="643.46" width="51.47" height="8.79"/><rect class="cls-18" x="268.5" y="656.01" width="51.47" height="8.79"/><rect class="cls-18" x="268.5" y="668.57" width="51.47" height="8.79"/><rect class="cls-18" x="268.5" y="681.12" width="51.47" height="8.79"/><rect class="cls-18" x="268.5" y="693.68" width="51.47" height="8.79"/><rect class="cls-18" x="268.5" y="706.23" width="51.47" height="8.79"/><rect class="cls-18" x="268.5" y="718.78" width="51.47" height="8.79"/><rect class="cls-18" x="268.5" y="731.34" width="51.47" height="8.79"/><rect class="cls-18" x="268.5" y="743.89" width="51.47" height="8.79"/><rect class="cls-18" x="268.5" y="756.45" width="51.47" height="8.79"/><rect class="cls-18" x="268.5" y="769" width="51.47" height="8.79"/><rect class="cls-18" x="268.5" y="781.56" width="51.47" height="8.79"/><rect class="cls-18" x="268.5" y="794.11" width="51.47" height="8.79"/><rect class="cls-19" x="337.55" y="664.8" width="12.55" height="48.96"/><rect class="cls-19" x="352.62" y="664.8" width="12.55" height="48.96"/><rect class="cls-19" x="367.68" y="664.8" width="12.55" height="48.96"/><rect class="cls-19" x="337.55" y="725.06" width="12.55" height="48.96"/><rect class="cls-19" x="352.62" y="725.06" width="12.55" height="48.96"/><rect class="cls-19" x="367.68" y="725.06" width="12.55" height="48.96"/><rect class="cls-19" x="337.55" y="785.32" width="12.55" height="25.11"/><rect class="cls-19" x="352.62" y="785.32" width="12.55" height="25.11"/><rect class="cls-19" x="367.68" y="785.32" width="12.55" height="25.11"/><circle class="cls-20" cx="406.26" cy="633.76" r="9.7"/><circle class="cls-20" cx="429.54" cy="633.76" r="9.7"/><circle class="cls-20" cx="406.26" cy="660.12" r="9.7"/><circle class="cls-20" cx="429.54" cy="660.12" r="9.7"/><circle class="cls-20" cx="406.26" cy="686.49" r="9.7"/><circle class="cls-20" cx="429.54" cy="686.49" r="9.7"/><circle class="cls-20" cx="406.26" cy="712.85" r="9.7"/><circle class="cls-20" cx="429.54" cy="712.85" r="9.7"/><circle class="cls-20" cx="406.26" cy="739.21" r="9.7"/><circle class="cls-20" cx="429.54" cy="739.21" r="9.7"/><circle class="cls-20" cx="406.26" cy="765.58" r="9.7"/><circle class="cls-20" cx="429.54" cy="765.58" r="9.7"/><circle class="cls-20" cx="406.26" cy="791.94" r="9.7"/><circle class="cls-20" cx="429.54" cy="791.94" r="9.7"/><rect class="cls-21" x="460.59" y="708.74" width="12.55" height="20.09"/><rect class="cls-21" x="474.4" y="708.74" width="12.55" height="20.09"/><rect class="cls-21" x="488.21" y="708.74" width="12.55" height="20.09"/><rect class="cls-20" x="524.62" y="594.5" width="18.13" height="18.83"/><rect class="cls-20" x="547.21" y="594.5" width="18.83" height="18.83"/><rect class="cls-20" x="524.62" y="620.86" width="18.83" height="18.83"/><rect class="cls-20" x="547.21" y="620.86" width="18.83" height="18.83"/><rect class="cls-20" x="524.62" y="647.22" width="18.83" height="18.83"/><rect class="cls-20" x="547.21" y="647.22" width="18.83" height="18.83"/><rect class="cls-20" x="524.62" y="673.59" width="18.83" height="18.83"/><rect class="cls-20" x="547.21" y="673.59" width="18.83" height="18.83"/><rect class="cls-20" x="524.62" y="699.95" width="18.83" height="18.83"/><rect class="cls-20" x="547.21" y="699.95" width="18.83" height="18.83"/><rect class="cls-20" x="524.62" y="726.32" width="18.83" height="18.83"/><rect class="cls-20" x="547.21" y="726.32" width="18.83" height="18.83"/><rect class="cls-20" x="524.62" y="752.68" width="18.13" height="18.83"/><rect class="cls-20" x="547.92" y="752.68" width="18.13" height="18.83"/><rect class="cls-21" x="586.13" y="747.66" width="12.55" height="21.34"/><rect class="cls-21" x="602.45" y="747.66" width="12.55" height="21.34"/><rect class="cls-21" x="618.77" y="747.66" width="12.55" height="21.34"/><rect class="cls-21" x="460.59" y="732.59" width="12.55" height="20.09"/><rect class="cls-21" x="474.4" y="732.59" width="12.55" height="20.09"/><rect class="cls-21" x="488.21" y="732.59" width="12.55" height="20.09"/><rect class="cls-21" x="460.59" y="756.45" width="12.55" height="20.09"/><rect class="cls-21" x="474.4" y="756.45" width="12.55" height="20.09"/><rect class="cls-21" x="488.21" y="756.45" width="12.55" height="20.09"/><rect class="cls-21" x="460.59" y="780.3" width="12.55" height="20.09"/><rect class="cls-21" x="474.4" y="780.3" width="12.55" height="20.09"/><rect class="cls-21" x="488.21" y="780.3" width="12.55" height="20.09"/><rect class="cls-22" x="519.59" y="574.41" width="51.47" height="13.81"/><polygon class="cls-23" points="586.13 782.81 631.33 782.81 637.61 797.88 579.86 797.88 586.13 782.81"/><rect class="cls-21" x="586.13" y="797.88" width="45.2" height="15.07"/><path class="cls-24" d="M641.41,769S629.26,791.6,629,799.77s5.25,14,19,9.53c14.29-4.63-6.55-40.3-6.55-40.3"/><path class="cls-25" d="M646.39,776.84S631.82,793.6,630,800.37s1.64,12.58,14,11.24c12.84-1.38,2.43-34.77,2.43-34.77"/><polygon class="cls-26" points="645.72 801.99 641.33 804.94 641.33 798.26 642.73 797.19 645.95 798.42 646.22 797.73 643.43 796.66 645.65 794.98 645.2 794.38 641.33 797.32 641.33 789.78 640.28 789.78 640.28 793.45 637.91 791.59 637.45 792.18 640.28 794.4 640.28 801.88 638 800.68 637.66 797.35 636.92 797.43 637.2 800.26 634.79 798.99 634.44 799.65 640.28 802.73 640.28 808.11 636.39 806.06 636.04 806.73 640.28 808.96 640.28 817.81 641.33 817.81 641.33 805.84 646.13 802.61 645.72 801.99"/><path class="cls-25" d="M503.71,769.54s-1.16,2.34-.59,3.88a4,4,0,0,0,2.43,2.08,4.53,4.53,0,0,0-1.84-6"/><path class="cls-24" d="M504.26,771.72a3.39,3.39,0,0,0-.33,2.16,2.22,2.22,0,0,0,1.35,1.15,2.5,2.5,0,0,0-1-3.31"/><path class="cls-25" d="M498.2,774.88s1.53,2.11,3.16,2.32a4,4,0,0,0,3-1.19,4.52,4.52,0,0,0-6.13-1.13"/><path class="cls-24" d="M500.38,775.41s.85,1.17,1.76,1.28a2.19,2.19,0,0,0,1.65-.65,4.14,4.14,0,0,0-1.63-1,4,4,0,0,0-1.78.38"/><path class="cls-25" d="M507.12,779.72a4.41,4.41,0,0,0-2.49,1.31,2.87,2.87,0,0,0-.17,2.28,3.24,3.24,0,0,0,2.66-3.59"/><path class="cls-24" d="M506.09,781a2.43,2.43,0,0,0-1.38.73,1.57,1.57,0,0,0-.09,1.27,3,3,0,0,0,1.16-.74,2.9,2.9,0,0,0,.31-1.26"/><path class="cls-25" d="M500.9,778.64a4.43,4.43,0,0,0,.12,2.81,2.86,2.86,0,0,0,2,1.13,5.21,5.21,0,0,0-.3-2.45,5.15,5.15,0,0,0-1.81-1.49"/><path class="cls-24" d="M501.58,780.1a2.46,2.46,0,0,0,.07,1.56,1.58,1.58,0,0,0,1.11.63,1.8,1.8,0,0,0-1.18-2.19"/><path class="cls-25" d="M495.28,780.83s.64,2.21,1.93,2.86a3.49,3.49,0,0,0,2.81-.09,6.41,6.41,0,0,0-1.89-2.38,6.31,6.31,0,0,0-2.85-.39"/><path class="cls-24" d="M496.93,781.91a3,3,0,0,0,1.08,1.6,1.93,1.93,0,0,0,1.56,0,3.58,3.58,0,0,0-1.05-1.33,3.64,3.64,0,0,0-1.59-.22"/><path class="cls-25" d="M494.13,786.31s2.15,1.29,3.67.85A3.78,3.78,0,0,0,500,785a4.31,4.31,0,0,0-5.84,1.31"/><path class="cls-24" d="M496.26,786a3.2,3.2,0,0,0,2,.47,2.14,2.14,0,0,0,1.21-1.2,4,4,0,0,0-1.83-.28,3.91,3.91,0,0,0-1.42,1"/><path class="cls-25" d="M515.38,768.27s-2.54-.41-3.83.58a3.93,3.93,0,0,0-1.25,2.89,4.44,4.44,0,0,0,5.08-3.47"/><path class="cls-24" d="M513.49,769.42a3.36,3.36,0,0,0-2.13.32,2.17,2.17,0,0,0-.7,1.61,4,4,0,0,0,1.84-.43,4,4,0,0,0,1-1.5"/><path class="cls-25" d="M508.73,764.63s-1.54,2.07-1.26,3.66a3.94,3.94,0,0,0,2,2.45,7.31,7.31,0,0,0,.85-3.3,7.18,7.18,0,0,0-1.58-2.81"/><path class="cls-24" d="M508.88,766.84a3.35,3.35,0,0,0-.7,2,2.14,2.14,0,0,0,1.1,1.36,2.49,2.49,0,0,0-.4-3.4"/><path class="cls-25" d="M521.31,782.44a4.33,4.33,0,0,0-2.8.07,2.82,2.82,0,0,0-1.16,2,3.23,3.23,0,0,0,4-2"/><path class="cls-24" d="M519.85,783.1a2.45,2.45,0,0,0-1.56,0,1.56,1.56,0,0,0-.65,1.09,3,3,0,0,0,1.37-.14,2.9,2.9,0,0,0,.84-1"/><path class="cls-25" d="M522.37,787.16s-.92-1.62-2.06-1.9a2.87,2.87,0,0,0-2.21.61,5.3,5.3,0,0,0,1.95,1.52,5.19,5.19,0,0,0,2.32-.23"/><path class="cls-24" d="M520.86,786.62s-.51-.91-1.15-1.06a1.54,1.54,0,0,0-1.22.34,2.89,2.89,0,0,0,1.08.84,2.82,2.82,0,0,0,1.29-.12"/><path class="cls-25" d="M524.7,777.78s-2.64-.92-4.2-.11a4.29,4.29,0,0,0-1.9,2.86s2.45.42,3.7-.2a7.77,7.77,0,0,0,2.4-2.55"/><path class="cls-24" d="M522.45,778.65a3.65,3.65,0,0,0-2.33-.06,2.39,2.39,0,0,0-1.06,1.59,4.44,4.44,0,0,0,2.06-.11,4.35,4.35,0,0,0,1.33-1.42"/><path class="cls-25" d="M519.28,773.32s-2.25.48-3,1.73a3.47,3.47,0,0,0-.1,2.81,6.53,6.53,0,0,0,2.5-1.72,6.34,6.34,0,0,0,.59-2.82"/><path class="cls-24" d="M518.08,774.89a3,3,0,0,0-1.67,1,2,2,0,0,0,0,1.57,2.22,2.22,0,0,0,1.72-2.53"/><path class="cls-25" d="M513.89,771.79s-1.43,2.06-1.11,3.6a3.81,3.81,0,0,0,2,2.32,7.2,7.2,0,0,0,.72-3.23,7,7,0,0,0-1.63-2.69"/><path class="cls-24" d="M514.1,773.94a3.21,3.21,0,0,0-.61,2,2.11,2.11,0,0,0,1.11,1.29,3.91,3.91,0,0,0,.4-1.8,3.8,3.8,0,0,0-.9-1.49"/><path class="cls-26" d="M523.32,794.87a1.73,1.73,0,0,1-.23-.75l-4.88,1.43L520,791h-.47l-2,4.55-6.84,2.31-.3-10.08,2.06-1.9,5-.07.23-.46H513l4.67-4.31-.16-.71-3.16,2.78,1.27-4.88-.39.16-1.67,5.41-3.11,2.73-.7-15.14H509l-.08,7.77-3.76-3.45-.71.08,4.31,4.23L508.5,790l-4.25-3.5-.4-3.37-.31-.55V786l-2.9-1.88-.78-.08,8.64,7-.06,4.67-8.58-4-1.18-2.83-.63-.15,1.1,2.74L494.6,790l.08.31,8.08,3.84-4.47.32.55.47,4.86-.24,4.67,2.58-.13,20.87h2.93l-.31-19Z"/><path class="cls-25" d="M492.38,793.16s1.36,1.85,2.8,2a3.54,3.54,0,0,0,2.61-1.06,6.49,6.49,0,0,0-2.6-1.58,6.35,6.35,0,0,0-2.81.61"/><path class="cls-24" d="M494.31,793.61s.75,1,1.55,1.13a1.94,1.94,0,0,0,1.45-.58,3.67,3.67,0,0,0-1.44-.89,3.57,3.57,0,0,0-1.56.34"/><path class="cls-25" d="M493.18,798.71s2.47.46,3.74-.46a3.83,3.83,0,0,0,1.3-2.79,7.12,7.12,0,0,0-3.25.67,7,7,0,0,0-1.79,2.58"/><path class="cls-24" d="M495.06,797.64a3.26,3.26,0,0,0,2.08-.26,2.13,2.13,0,0,0,.72-1.55,4,4,0,0,0-1.81.37,3.91,3.91,0,0,0-1,1.44"/><path class="cls-25" d="M489,786.93s.64,2.42,2,3.17a3.82,3.82,0,0,0,3.07,0,4.34,4.34,0,0,0-5.1-3.14"/><path class="cls-24" d="M490.77,788.16a3.29,3.29,0,0,0,1.13,1.76,2.12,2.12,0,0,0,1.71,0,4,4,0,0,0-1.11-1.47,3.93,3.93,0,0,0-1.73-.27"/><path class="cls-25" d="M516.77,787a4.4,4.4,0,0,0,.11,2.81,2.86,2.86,0,0,0,2,1.13,3.23,3.23,0,0,0-2.1-3.94"/><path class="cls-24" d="M517.45,788.48a2.43,2.43,0,0,0,.06,1.56,1.58,1.58,0,0,0,1.11.63,3,3,0,0,0-.16-1.36,2.92,2.92,0,0,0-1-.83"/><path class="cls-25" d="M532.15,793.74s-2.18-2.14-4.1-2.07a4.65,4.65,0,0,0-3.2,1.93s2.22,1.56,3.74,1.54a8.55,8.55,0,0,0,3.56-1.4"/><path class="cls-24" d="M529.52,793.55a4,4,0,0,0-2.27-1.15,2.58,2.58,0,0,0-1.78,1.07,4.79,4.79,0,0,0,2.07.86,4.67,4.67,0,0,0,2-.78"/><path class="cls-25" d="M525.85,788.52s-2.25.93-2.8,2.36a3.69,3.69,0,0,0,.42,3,6.89,6.89,0,0,0,2.29-2.26,6.8,6.8,0,0,0,.09-3.05"/><path class="cls-24" d="M524.89,790.39s-1.25.51-1.56,1.31a2.07,2.07,0,0,0,.24,1.64,3.83,3.83,0,0,0,1.27-1.26,3.69,3.69,0,0,0,0-1.69"/><path class="cls-25" d="M512.58,792.76s2,1.18,3.39.78a3.51,3.51,0,0,0,2-2,4,4,0,0,0-5.39,1.23"/><path class="cls-24" d="M514.54,792.42a3.05,3.05,0,0,0,1.89.44,2,2,0,0,0,1.11-1.12,3.65,3.65,0,0,0-1.68-.25,3.59,3.59,0,0,0-1.32.93"/><path class="cls-25" d="M501.12,786.29s-1.4,1.85-1.15,3.29a3.52,3.52,0,0,0,1.78,2.2,4,4,0,0,0-.63-5.49"/><path class="cls-24" d="M501.24,788.28a3,3,0,0,0-.64,1.83,2,2,0,0,0,1,1.22,3.67,3.67,0,0,0,.43-1.64,3.72,3.72,0,0,0-.78-1.41"/><path class="cls-25" d="M503.62,799.34s-.41-2.27-1.64-3.06a3.53,3.53,0,0,0-2.83-.19,6.63,6.63,0,0,0,1.66,2.57,6.38,6.38,0,0,0,2.81.68"/><path class="cls-24" d="M502.08,798.08a3,3,0,0,0-.91-1.7,2,2,0,0,0-1.58-.11,3.65,3.65,0,0,0,.92,1.44,3.55,3.55,0,0,0,1.57.37"/><path class="cls-25" d="M528.55,798.57s-.42-2.28-1.64-3.07a3.53,3.53,0,0,0-2.83-.19,6.57,6.57,0,0,0,1.65,2.58,6.41,6.41,0,0,0,2.82.68"/><path class="cls-24" d="M527,797.31a3,3,0,0,0-.91-1.7,2,2,0,0,0-1.57-.11,3.63,3.63,0,0,0,.92,1.43,3.58,3.58,0,0,0,1.56.38"/><path class="cls-25" d="M15.34,769.54s-1.16,2.34-.58,3.88a4,4,0,0,0,2.42,2.08,7.4,7.4,0,0,0,.25-3.44,7.35,7.35,0,0,0-2.09-2.52"/><path class="cls-24" d="M15.89,771.72a3.39,3.39,0,0,0-.33,2.16A2.22,2.22,0,0,0,16.91,775a4.15,4.15,0,0,0,.14-1.91,4.13,4.13,0,0,0-1.16-1.4"/><path class="cls-25" d="M9.83,774.88S11.36,777,13,777.2A4,4,0,0,0,16,776,7.39,7.39,0,0,0,13,774.2a7.32,7.32,0,0,0-3.19.68"/><path class="cls-24" d="M12,775.41s.86,1.17,1.76,1.28a2.19,2.19,0,0,0,1.65-.65,4.14,4.14,0,0,0-1.63-1,4,4,0,0,0-1.78.38"/><path class="cls-25" d="M18.75,779.72A4.44,4.44,0,0,0,16.26,781a2.87,2.87,0,0,0-.17,2.28A5.24,5.24,0,0,0,18.18,782a5.19,5.19,0,0,0,.57-2.27"/><path class="cls-24" d="M17.72,781a2.43,2.43,0,0,0-1.38.73,1.57,1.57,0,0,0-.09,1.27,2.89,2.89,0,0,0,1.16-.74,2.9,2.9,0,0,0,.31-1.26"/><path class="cls-25" d="M12.53,778.64a4.43,4.43,0,0,0,.12,2.81,2.86,2.86,0,0,0,2,1.13,5.21,5.21,0,0,0-.3-2.45,5.15,5.15,0,0,0-1.81-1.49"/><path class="cls-24" d="M13.21,780.1a2.46,2.46,0,0,0,.07,1.56,1.58,1.58,0,0,0,1.11.63,3,3,0,0,0-.17-1.37,3,3,0,0,0-1-.82"/><path class="cls-25" d="M6.91,780.83s.64,2.21,1.93,2.86a3.52,3.52,0,0,0,2.82-.09,6.47,6.47,0,0,0-1.9-2.38,6.31,6.31,0,0,0-2.85-.39"/><path class="cls-24" d="M8.56,781.91a3,3,0,0,0,1.08,1.6,1.93,1.93,0,0,0,1.56,0,3.58,3.58,0,0,0-1-1.33,3.64,3.64,0,0,0-1.59-.22"/><path class="cls-25" d="M5.76,786.31s2.15,1.29,3.67.85A3.78,3.78,0,0,0,11.6,785a7.08,7.08,0,0,0-3.27-.5,7.07,7.07,0,0,0-2.57,1.81"/><path class="cls-24" d="M7.89,786a3.22,3.22,0,0,0,2,.47,2.14,2.14,0,0,0,1.21-1.2,4,4,0,0,0-1.82-.28,3.89,3.89,0,0,0-1.43,1"/><path class="cls-25" d="M27,768.27s-2.54-.41-3.83.58a3.93,3.93,0,0,0-1.25,2.89,7.23,7.23,0,0,0,3.32-.77,7.23,7.23,0,0,0,1.76-2.7"/><path class="cls-24" d="M25.12,769.42a3.36,3.36,0,0,0-2.13.32,2.17,2.17,0,0,0-.7,1.61,4.09,4.09,0,0,0,1.85-.43,4,4,0,0,0,1-1.5"/><path class="cls-25" d="M20.36,764.63s-1.54,2.07-1.25,3.66a3.9,3.9,0,0,0,2,2.45,7.31,7.31,0,0,0,.85-3.3,7.18,7.18,0,0,0-1.58-2.81"/><path class="cls-24" d="M20.51,766.84a3.35,3.35,0,0,0-.7,2,2.14,2.14,0,0,0,1.1,1.36,4,4,0,0,0,.47-1.83,4,4,0,0,0-.87-1.57"/><path class="cls-25" d="M32.94,782.44a4.33,4.33,0,0,0-2.8.07,2.82,2.82,0,0,0-1.16,2,5.15,5.15,0,0,0,2.45-.26,5.2,5.2,0,0,0,1.51-1.78"/><path class="cls-24" d="M31.48,783.1a2.45,2.45,0,0,0-1.56,0,1.56,1.56,0,0,0-.65,1.09,3,3,0,0,0,1.37-.14,2.9,2.9,0,0,0,.84-1"/><path class="cls-25" d="M34,787.16s-.93-1.62-2.07-1.9a2.89,2.89,0,0,0-2.21.61,5.3,5.3,0,0,0,1.95,1.52,5.24,5.24,0,0,0,2.33-.23"/><path class="cls-24" d="M32.49,786.62s-.51-.91-1.15-1.06a1.54,1.54,0,0,0-1.22.34,2.89,2.89,0,0,0,1.08.84,2.82,2.82,0,0,0,1.29-.12"/><path class="cls-25" d="M36.33,777.78s-2.64-.92-4.2-.11a4.26,4.26,0,0,0-1.89,2.86s2.44.42,3.69-.2a7.77,7.77,0,0,0,2.4-2.55"/><path class="cls-24" d="M34.08,778.65a3.64,3.64,0,0,0-2.33-.06,2.36,2.36,0,0,0-1.05,1.59,4.4,4.4,0,0,0,2.05-.11,4.35,4.35,0,0,0,1.33-1.42"/><path class="cls-25" d="M30.91,773.32s-2.25.48-3,1.73a3.47,3.47,0,0,0-.1,2.81,6.53,6.53,0,0,0,2.5-1.72,6.34,6.34,0,0,0,.59-2.82"/><path class="cls-24" d="M29.71,774.89a3,3,0,0,0-1.66,1,2,2,0,0,0-.06,1.57,3.58,3.58,0,0,0,1.39-1,3.62,3.62,0,0,0,.33-1.57"/><path class="cls-25" d="M25.52,771.79s-1.43,2.06-1.1,3.6a3.78,3.78,0,0,0,2,2.32,7.2,7.2,0,0,0,.72-3.23,7,7,0,0,0-1.63-2.69"/><path class="cls-24" d="M25.73,773.94a3.27,3.27,0,0,0-.61,2,2.12,2.12,0,0,0,1.12,1.29,4.05,4.05,0,0,0,.4-1.8,3.9,3.9,0,0,0-.91-1.49"/><path class="cls-26" d="M35,794.87a1.73,1.73,0,0,1-.23-.75l-4.88,1.43L31.58,791h-.47l-2,4.55-6.84,2.31L22,787.79l2.06-1.9,4.95-.07.23-.46H24.62l4.67-4.31-.16-.71L26,783.12l1.27-4.88-.39.16-1.67,5.41-3.11,2.73-.7-15.14h-.71l-.08,7.77-3.76-3.45-.71.08L20.43,780l-.3,9.93-4.25-3.5-.39-3.37-.32-.55V786l-2.9-1.88-.78-.08,8.64,7-.06,4.67-8.58-4-1.18-2.83-.63-.15,1.1,2.74L6.23,790l.08.31,8.08,3.84-4.47.32.55.47,4.86-.24L20,797.27l-.13,20.87H22.8l-.31-19Z"/><path class="cls-25" d="M4,793.16s1.36,1.85,2.8,2a3.51,3.51,0,0,0,2.61-1.06,6.41,6.41,0,0,0-2.6-1.58,6.35,6.35,0,0,0-2.81.61"/><path class="cls-24" d="M5.94,793.61s.75,1,1.55,1.13a1.94,1.94,0,0,0,1.45-.58,3.67,3.67,0,0,0-1.44-.89,3.57,3.57,0,0,0-1.56.34"/><path class="cls-25" d="M4.81,798.71s2.47.46,3.74-.46a3.83,3.83,0,0,0,1.3-2.79,7.12,7.12,0,0,0-3.25.67,7,7,0,0,0-1.79,2.58"/><path class="cls-24" d="M6.69,797.64a3.26,3.26,0,0,0,2.08-.26,2.13,2.13,0,0,0,.72-1.55,4,4,0,0,0-1.81.37,3.91,3.91,0,0,0-1,1.44"/><path class="cls-25" d="M.63,786.93s.64,2.42,2,3.17a3.82,3.82,0,0,0,3.07,0,7,7,0,0,0-2-2.64,7,7,0,0,0-3.1-.5"/><path class="cls-24" d="M2.41,788.16a3.25,3.25,0,0,0,1.12,1.76,2.11,2.11,0,0,0,1.71,0,4,4,0,0,0-1.11-1.47,3.89,3.89,0,0,0-1.72-.27"/><path class="cls-25" d="M28.4,787a4.42,4.42,0,0,0,.12,2.81,2.83,2.83,0,0,0,2,1.13,5.31,5.31,0,0,0-.29-2.45A5.27,5.27,0,0,0,28.4,787"/><path class="cls-24" d="M29.08,788.48a2.43,2.43,0,0,0,.06,1.56,1.58,1.58,0,0,0,1.11.63,3,3,0,0,0-.16-1.36,2.92,2.92,0,0,0-1-.83"/><path class="cls-25" d="M43.78,793.74s-2.18-2.14-4.1-2.07a4.65,4.65,0,0,0-3.2,1.93s2.22,1.56,3.74,1.54a8.55,8.55,0,0,0,3.56-1.4"/><path class="cls-24" d="M41.16,793.55a4,4,0,0,0-2.28-1.15,2.58,2.58,0,0,0-1.78,1.07,4.79,4.79,0,0,0,2.07.86,4.73,4.73,0,0,0,2-.78"/><path class="cls-25" d="M37.48,788.52s-2.25.93-2.8,2.36a3.69,3.69,0,0,0,.42,3,6.89,6.89,0,0,0,2.29-2.26,6.8,6.8,0,0,0,.09-3.05"/><path class="cls-24" d="M36.52,790.39s-1.25.51-1.56,1.31a2.07,2.07,0,0,0,.24,1.64,3.83,3.83,0,0,0,1.27-1.26,3.69,3.69,0,0,0,.05-1.69"/><path class="cls-25" d="M24.21,792.76s2,1.18,3.39.78a3.54,3.54,0,0,0,2-2,6.49,6.49,0,0,0-3-.44,6.51,6.51,0,0,0-2.37,1.67"/><path class="cls-24" d="M26.18,792.42a3,3,0,0,0,1.88.44,2,2,0,0,0,1.11-1.12,3.65,3.65,0,0,0-1.68-.25,3.52,3.52,0,0,0-1.31.93"/><path class="cls-25" d="M12.75,786.29s-1.4,1.85-1.15,3.29a3.52,3.52,0,0,0,1.78,2.2,6.54,6.54,0,0,0,.77-3,6.54,6.54,0,0,0-1.4-2.53"/><path class="cls-24" d="M12.87,788.28a3,3,0,0,0-.64,1.83,2,2,0,0,0,1,1.22,3.67,3.67,0,0,0,.43-1.64,3.58,3.58,0,0,0-.78-1.41"/><path class="cls-25" d="M15.26,799.34s-.42-2.27-1.65-3.06a3.51,3.51,0,0,0-2.82-.19,6.56,6.56,0,0,0,1.65,2.57,6.41,6.41,0,0,0,2.82.68"/><path class="cls-24" d="M13.71,798.08a3,3,0,0,0-.91-1.7,2,2,0,0,0-1.57-.11,3.58,3.58,0,0,0,.91,1.44,3.55,3.55,0,0,0,1.57.37"/><path class="cls-25" d="M40.18,798.57s-.42-2.28-1.64-3.07a3.53,3.53,0,0,0-2.83-.19,6.57,6.57,0,0,0,1.65,2.58,6.41,6.41,0,0,0,2.82.68"/><path class="cls-24" d="M38.63,797.31a3,3,0,0,0-.91-1.7,2,2,0,0,0-1.57-.11,3.63,3.63,0,0,0,.92,1.43,3.58,3.58,0,0,0,1.56.38"/><path class="cls-24" d="M421.67,776.65A24.72,24.72,0,1,1,397,751.94a24.72,24.72,0,0,1,24.72,24.71"/><path class="cls-27" d="M411.48,773.6a18.6,18.6,0,1,1-18.6-18.6,18.6,18.6,0,0,1,18.6,18.6"/><path class="cls-25" d="M412.38,771.54a5.56,5.56,0,1,1-5.55-5.55,5.55,5.55,0,0,1,5.55,5.55"/><path class="cls-25" d="M415.42,780.83a4.13,4.13,0,1,1-4.13-4.13,4.13,4.13,0,0,1,4.13,4.13"/><path class="cls-25" d="M412.74,790.12a4.13,4.13,0,1,1-4.13-4.13,4.12,4.12,0,0,1,4.13,4.13"/><path class="cls-25" d="M389.53,784.22a4.13,4.13,0,1,1-4.13-4.12,4.13,4.13,0,0,1,4.13,4.12"/><path class="cls-25" d="M390.06,775.12a4.13,4.13,0,1,1-4.12-4.13,4.12,4.12,0,0,1,4.12,4.13"/><path class="cls-25" d="M399.71,765.65a4.13,4.13,0,1,1-4.13-4.13,4.13,4.13,0,0,1,4.13,4.13"/><polygon class="cls-26" points="406.88 782.39 411.74 783.19 407.95 781.7 413.67 778.38 396.76 784.23 396.4 778.91 409.07 772.78 403.47 774.27 403.36 771.5 402.88 774.43 396.26 776.85 395.51 765.68 394.32 779.57 388.04 776.68 387.66 774.01 387.5 776.52 383.18 774.86 394.15 781.56 393.44 789.81 387.34 786.5 386.06 781.54 386.06 785.86 382.05 784.42 393.25 792.02 390.84 817.97 399.04 817.9 397.61 796.79 410.89 789.71 407.52 790.63 407.37 787.3 406.72 790.83 397.43 794.16 397 787.81 406.88 782.39"/><path class="cls-24" d="M228.33,784.38a20.09,20.09,0,1,1-20.09-20.09,20.08,20.08,0,0,1,20.09,20.09"/><path class="cls-27" d="M220.05,781.9a15.12,15.12,0,1,1-15.12-15.12,15.12,15.12,0,0,1,15.12,15.12"/><path class="cls-25" d="M220.78,780.23a4.52,4.52,0,1,1-4.51-4.52,4.52,4.52,0,0,1,4.51,4.52"/><path class="cls-25" d="M223.25,787.78a3.36,3.36,0,1,1-3.36-3.36,3.35,3.35,0,0,1,3.36,3.36"/><path class="cls-25" d="M221.07,795.33a3.36,3.36,0,1,1-3.35-3.36,3.35,3.35,0,0,1,3.35,3.36"/><path class="cls-25" d="M202.2,790.54a3.36,3.36,0,1,1-3.35-3.36,3.35,3.35,0,0,1,3.35,3.36"/><path class="cls-25" d="M202.64,783.13a3.36,3.36,0,1,1-3.36-3.35,3.36,3.36,0,0,1,3.36,3.35"/><path class="cls-25" d="M210.48,775.44a3.36,3.36,0,1,1-3.36-3.36,3.36,3.36,0,0,1,3.36,3.36"/><polygon class="cls-26" points="216.31 789.04 220.26 789.7 217.18 788.48 221.82 785.79 208.08 790.54 207.79 786.21 218.09 781.23 213.53 782.45 213.45 780.19 213.06 782.58 207.68 784.54 207.06 775.46 206.1 786.75 200.99 784.4 200.68 782.23 200.55 784.27 197.04 782.92 205.96 788.37 205.38 795.08 200.42 792.39 199.38 788.35 199.38 791.87 196.13 790.7 205.23 796.88 203.27 817.97 209.93 817.91 208.77 800.75 219.57 794.99 216.83 795.74 216.7 793.04 216.18 795.9 208.63 798.61 208.28 793.45 216.31 789.04"/><rect class="cls-28" y="817" width="640" height="7"/><path class="cls-29" d="M1137.16,212.43l.09-42.47s-1.83-.09-1.83-4,.1-19,.92-24.25c0,0-2.2.91-3.66,0,0,0-1.92,3.66-4.58,2.65s-8-9.61-8-9.61-3.48,3-7.69,2.47-1.92-4.12,1.19-5.95,3.39-.18,4.94,0,10.89-3.2,13.82-5.58,5.77-5,9.06-6.14,2.75-.91,2.75-1.92-.91-.55-2.2-1.28-3-6.77-2.93-8.79.74-5.4,4.31-6.22,5,0,6.68,2.38,1.19,6.32,2.29,8.42,1.37,3.39,4.12,4.85,6.49,1.37,7.78,1.92,8-3.84,9.15-4.66,3.84-1.65,5.12.45-.82,4.76-1.64,5.22-3.3.55-3.85,4.21-1.1,5.86-4.85,8.61-8,.82-8.42,5.4-1.19,14.55.28,24.71,1.28,19-.65,22.88c0,0,.83,23.16.65,25.72s-2.29,2.38-2.29,2.38H1143.2l-5.58.73Z"/><rect class="cls-28" x="1103.75" y="213.13" width="113.75" height="11.72" rx="4.44" ry="4.44"/><path class="cls-30" d="M1,824H584c137,0,430-592,525-601,143.53-13.6,131.94,8.44,214,49.72S1642,519,1921,551v523H1Z"/><path class="cls-31" d="M1921,662.47S1344,570,1213,923h707Z"/><path class="cls-25" d="M1798,608.56c-.51-13.33-21.39-24.06-47.09-24.06s-46.57,10.73-47.09,24.06h0V726.17a12.69,12.69,0,0,0,12.7,12.7h68.83a12.7,12.7,0,0,0,12.7-12.7V608.56Z"/><path class="cls-24" d="M1507.27,614.3s-18.43,34.26-18.87,46.64,8,21.19,28.79,14.44c21.66-7-9.92-61.08-9.92-61.08"/><path class="cls-25" d="M1514.81,626.18s-22.09,25.4-24.88,35.66,2.49,19.08,21.2,17c19.46-2.1,3.68-52.71,3.68-52.71"/><polygon class="cls-26" points="1513.79 664.31 1507.13 668.78 1507.13 658.64 1509.27 657.03 1514.14 658.9 1514.55 657.84 1510.33 656.22 1513.69 653.67 1513 652.77 1507.13 657.22 1507.13 645.8 1505.55 645.8 1505.55 651.36 1501.95 648.54 1501.25 649.43 1505.55 652.8 1505.55 664.14 1502.09 662.32 1501.58 657.28 1500.45 657.39 1500.88 661.68 1497.22 659.76 1496.69 660.76 1505.55 665.42 1505.55 673.59 1499.65 670.48 1499.12 671.49 1505.55 674.87 1505.55 688.29 1507.13 688.29 1507.13 670.15 1514.42 665.25 1513.79 664.31"/><path class="cls-27" d="M1632.58,621.59c-.44-13.33-18.32-24.06-40.33-24.06s-39.88,10.73-40.32,24.06h0V751.9h80.69V621.59Z"/><path class="cls-24" d="M1594.49,657.25c-.44-10.32-18.32-18.62-40.33-18.62s-39.89,8.3-40.33,18.62h0v91.67c0,5.09,5.33,9.21,11.91,9.21h56.88c6.58,0,11.91-4.12,11.91-9.21V657.25Z"/><path class="cls-32" d="M1597,612.07h114a12,12,0,0,1,12,12v49.82a3.33,3.33,0,0,1-3.33,3.33H1585a0,0,0,0,1,0,0V624.07A12,12,0,0,1,1597,612.07Z"/><ellipse class="cls-33" cx="1669.19" cy="745.39" rx="130.81" ry="36.59"/><ellipse class="cls-34" cx="1635.19" cy="743.39" rx="91.58" ry="25.61"/><path class="cls-35" d="M1720.24,670.52a6.63,6.63,0,0,0-12.73,2.13,3.54,3.54,0,0,0-5.32.2,4.58,4.58,0,0,0-4.4-3.35,4.48,4.48,0,0,0-2.35.67,5.6,5.6,0,0,0-8.12-1.62,6.63,6.63,0,0,0-11.14,2.44,3.56,3.56,0,0,0-5.83,0,5.6,5.6,0,0,0-9-2.11,7.65,7.65,0,0,0-13.37.92,14.13,14.13,0,0,1-9.39-1.37,4.56,4.56,0,0,0-3.08,1.21,5.61,5.61,0,0,0-10.59,1.25,3.45,3.45,0,0,0-3.44.08,5.09,5.09,0,0,0-9.94,1.54,2.77,2.77,0,0,0,0,.3,2,2,0,0,0-2.32.15,4.77,4.77,0,0,0,.24-1.47,5.1,5.1,0,1,0-10.2,0,4.77,4.77,0,0,0,.24,1.47,2.08,2.08,0,0,0-1.26-.45,2,2,0,0,0-1.75,1h-1.62a2,2,0,0,0-2.78-.72,3.57,3.57,0,1,0-6.1,2.71v4.14h65.12a7.57,7.57,0,0,0,7.59,0h54.89v0a4.38,4.38,0,0,0,.51,0,6.61,6.61,0,0,0,5-2.25,3.4,3.4,0,0,0,1.15.21,3.58,3.58,0,1,0,0-7.15Z"/><path class="cls-36" d="M1569.92,674.22h130.37a12,12,0,0,1,12,12v53.16a0,0,0,0,1,0,0H1557.92a0,0,0,0,1,0,0V686.22A12,12,0,0,1,1569.92,674.22Z"/><path class="cls-35" d="M1712.63,740.18a4.06,4.06,0,0,0-2.9-6.9,7.54,7.54,0,0,0-14.49,2.41,4,4,0,0,0-6,.24,5.22,5.22,0,0,0-5-3.82,5.16,5.16,0,0,0-2.67.76,6.35,6.35,0,0,0-9.23-1.83,7.53,7.53,0,0,0-12.67,2.77,4,4,0,0,0-6.63.06,6.37,6.37,0,0,0-10.24-2.41,8.7,8.7,0,0,0-15.21,1,16,16,0,0,1-10.68-1.56,5.17,5.17,0,0,0-3.5,1.38,6.38,6.38,0,0,0-12,1.42,4.11,4.11,0,0,0-1.87-.47,4,4,0,0,0-2,.56,5.79,5.79,0,0,0-11.31,1.76c0,.11,0,.22,0,.34a2.27,2.27,0,0,0-2.63.17,5.8,5.8,0,1,0-11.06,0,2.27,2.27,0,0,0-3.41.65h-1.85a2.29,2.29,0,0,0-2-1.16,2.25,2.25,0,0,0-1.18.33,4.06,4.06,0,1,0-6.94,3.09v3.18a4.05,4.05,0,0,0,2.9,6.9,7.53,7.53,0,0,0,14.48-2.41,4.05,4.05,0,0,0,2.93,1.25,4,4,0,0,0,3.12-1.49,5.16,5.16,0,0,0,7.68,3.06,6.35,6.35,0,0,0,9.23,1.83,7.53,7.53,0,0,0,12.67-2.77,4,4,0,0,0,6.63-.06,6.37,6.37,0,0,0,10.24,2.41,8.69,8.69,0,0,0,15.2-1,16,16,0,0,1,10.69,1.56,5.17,5.17,0,0,0,3.5-1.38,6.38,6.38,0,0,0,12-1.42,4,4,0,0,0,3.91-.09,5.79,5.79,0,0,0,11.31-1.76c0-.11,0-.22,0-.34a2.27,2.27,0,0,0,2.63-.17,5.52,5.52,0,0,0-.28,1.67,5.81,5.81,0,1,0,11.34-1.67,2.25,2.25,0,0,0,1.43.51,2.28,2.28,0,0,0,2-1.16h1.85a2.27,2.27,0,0,0,3.16.83,4.05,4.05,0,1,0,6.94-3.09Z"/><path class="cls-24" d="M1687.49,726.45s-49.16,91.4-50.33,124.44,21.22,56.55,76.81,38.55c57.8-18.72-26.48-163-26.48-163"/><path class="cls-25" d="M1707.63,758.13s-59,67.8-66.4,95.18,6.65,50.9,56.58,45.5c51.93-5.61,9.82-140.68,9.82-140.68"/><polygon class="cls-26" points="1704.89 859.89 1687.14 871.82 1687.14 844.78 1692.83 840.46 1705.83 845.46 1706.92 842.64 1695.67 838.31 1704.62 831.51 1702.8 829.1 1687.14 840.98 1687.14 810.5 1682.91 810.5 1682.91 825.34 1673.31 817.81 1671.44 820.19 1682.91 829.18 1682.91 859.44 1673.67 854.58 1672.32 841.12 1669.31 841.43 1670.46 852.89 1660.69 847.75 1659.28 850.42 1682.91 862.86 1682.91 884.65 1667.16 876.36 1665.75 879.04 1682.91 888.07 1682.91 923.88 1687.14 923.88 1687.14 875.47 1706.58 862.4 1704.89 859.89"/><rect class="cls-37" x="445.44" y="900.71" width="16.38" height="6"/><circle class="cls-37" cx="267.14" cy="915.48" r="7.52"/><circle class="cls-37" cx="284.34" cy="915.48" r="7.52"/><circle class="cls-37" cx="399.38" cy="915.48" r="7.52"/><circle class="cls-37" cx="416.58" cy="915.48" r="7.52"/><path class="cls-38" d="M447.56,880.74l-13.22-41.16a6.74,6.74,0,0,0-6.51-5H417.1a4.49,4.49,0,0,1-3.74,2h-143a4.49,4.49,0,0,1-3.74-2H254.8a6.76,6.76,0,0,0-6.52,5l-12.12,39.59a6.65,6.65,0,0,0-.3,2v26.31a6.76,6.76,0,0,0,6.75,6.77h198.5a6.76,6.76,0,0,0,6.75-6.77V882.72A6.65,6.65,0,0,0,447.56,880.74Z"/><rect class="cls-35" x="235.86" y="882" width="212" height="5.58"/><polygon class="cls-35" points="435.31 842.58 247.36 842.58 246.75 844.58 435.95 844.58 435.31 842.58"/><rect class="cls-39" x="293.43" y="846.58" width="97" height="33" rx="2" ry="2"/><rect class="cls-40" x="265.86" y="841.58" width="26" height="60" rx="1" ry="1"/><rect class="cls-39" x="268.95" y="844.58" width="8" height="32" rx="4" ry="4"/><rect class="cls-39" x="280.77" y="844.58" width="8" height="32" rx="4" ry="4"/><rect class="cls-40" x="391.86" y="841.58" width="26" height="60" rx="1" ry="1"/><rect class="cls-39" x="394.95" y="844.58" width="8" height="32" rx="4" ry="4"/><rect class="cls-39" x="406.77" y="844.58" width="8" height="32" rx="4" ry="4"/><path class="cls-39" d="M252.86,846.58h10.5a1.5,1.5,0,0,1,1.5,1.5v30a1.5,1.5,0,0,1-1.5,1.5h-11a1.5,1.5,0,0,1-1.5-1.5v-29.5A2,2,0,0,1,252.86,846.58Z"/><path class="cls-39" d="M420.86,846.58h10.5a1.5,1.5,0,0,1,1.5,1.5v30a1.5,1.5,0,0,1-1.5,1.5h-11a1.5,1.5,0,0,1-1.5-1.5v-29.5A2,2,0,0,1,420.86,846.58Z"/><polygon class="cls-39" points="273.78 829.58 267.86 834.58 267.86 839.58 415.86 838.58 415.86 834.58 409.94 829.58 273.78 829.58"/><path class="cls-35" d="M434.34,839.58a6.74,6.74,0,0,0-6.51-5H417.1a4.49,4.49,0,0,1-3.74,2h-143a4.49,4.49,0,0,1-3.74-2H254.8a6.76,6.76,0,0,0-6.52,5l-.3,1H434.67Z"/><circle class="cls-37" cx="492.31" cy="915.48" r="7.52"/><circle class="cls-37" cx="509.5" cy="915.48" r="7.52"/><circle class="cls-37" cx="624.55" cy="915.48" r="7.52"/><circle class="cls-37" cx="641.74" cy="915.48" r="7.52"/><path class="cls-38" d="M672.73,880.74l-13.22-41.16a6.74,6.74,0,0,0-6.51-5H642.27a4.49,4.49,0,0,1-3.74,2h-143a4.47,4.47,0,0,1-3.74-2H480a6.76,6.76,0,0,0-6.51,5l-12.13,39.59a7,7,0,0,0-.29,2v26.31a6.76,6.76,0,0,0,6.75,6.77h198.5a6.76,6.76,0,0,0,6.75-6.77V882.72A6.65,6.65,0,0,0,672.73,880.74Z"/><rect class="cls-35" x="461.03" y="882" width="212" height="5.58"/><polygon class="cls-35" points="660.48 842.58 472.53 842.58 471.92 844.58 661.12 844.58 660.48 842.58"/><rect class="cls-40" x="491.03" y="841.58" width="26" height="60" rx="1" ry="1"/><rect class="cls-39" x="494.12" y="844.58" width="8" height="32" rx="4" ry="4"/><rect class="cls-39" x="505.94" y="844.58" width="8" height="32" rx="4" ry="4"/><rect class="cls-40" x="617.03" y="841.58" width="26" height="60" rx="1" ry="1"/><rect class="cls-39" x="620.12" y="844.58" width="8" height="32" rx="4" ry="4"/><rect class="cls-39" x="631.94" y="844.58" width="8" height="32" rx="4" ry="4"/><path class="cls-39" d="M478,846.58h10.5a1.5,1.5,0,0,1,1.5,1.5v30a1.5,1.5,0,0,1-1.5,1.5h-11a1.5,1.5,0,0,1-1.5-1.5v-29.5A2,2,0,0,1,478,846.58Z"/><path class="cls-39" d="M646,846.58h10.5a1.5,1.5,0,0,1,1.5,1.5v30a1.5,1.5,0,0,1-1.5,1.5h-11a1.5,1.5,0,0,1-1.5-1.5v-29.5A2,2,0,0,1,646,846.58Z"/><polygon class="cls-39" points="498.95 829.58 493.03 834.58 493.03 839.58 641.03 838.58 641.03 834.58 635.11 829.58 498.95 829.58"/><path class="cls-35" d="M659.51,839.58a6.74,6.74,0,0,0-6.51-5H642.27a4.49,4.49,0,0,1-3.74,2h-143a4.47,4.47,0,0,1-3.74-2H480a6.76,6.76,0,0,0-6.51,5l-.31,1H659.83Z"/><path class="cls-41" d="M673,892.58h1.67a1.67,1.67,0,0,1,1.67,1.67v11.17a1.67,1.67,0,0,1-1.67,1.67H673a0,0,0,0,1,0,0v-14.5A0,0,0,0,1,673,892.58Z"/><rect class="cls-39" x="518.53" y="846.58" width="97" height="33" rx="2" ry="2"/><path class="cls-42" d="M270.1,312.5a32.63,32.63,0,0,0,34.8.77,21.86,21.86,0,0,0,23.82,2.05,15.65,15.65,0,1,0,9.39-28.68,21.87,21.87,0,0,0-19.36-12.44,32.61,32.61,0,0,0-60.95-.88c-.75-.07-1.51-.11-2.28-.11A22.37,22.37,0,0,0,234,289.63c-.26,0-.53,0-.8,0A14.16,14.16,0,1,0,242.91,314a22.35,22.35,0,0,0,27.19-1.53Z"/><path class="cls-42" d="M519.78,160.17a30,30,0,0,0,32,.7,20.09,20.09,0,0,0,21.9,1.89,14.39,14.39,0,1,0,8.64-26.37A20.11,20.11,0,0,0,564.5,125a30,30,0,0,0-56-.81,20.79,20.79,0,0,0-2.1-.11,20.58,20.58,0,0,0-19.82,15.1l-.74,0a13,13,0,1,0,9,22.46,20.56,20.56,0,0,0,25-1.4Z"/><path class="cls-42" d="M732.63,331.82a19.47,19.47,0,0,0-30-12.41,33.43,33.43,0,0,0-62.31,11.13,19.88,19.88,0,0,0-4.33-.49,19.47,19.47,0,0,0-17.74,11.43A14.49,14.49,0,1,0,612,369H724.53a19.47,19.47,0,0,0,8.1-37.18Z"/><path class="cls-42" d="M1740.53,93.07a8.77,8.77,0,0,0-1.15.07,13.06,13.06,0,0,0-11.7-7.26,12.8,12.8,0,0,0-3.11.38,18.64,18.64,0,0,0-37.27.27,13.05,13.05,0,0,0-17.12,12.41c0,.24,0,.47,0,.71h0a6.18,6.18,0,1,0,0,12.35h70.35a9.47,9.47,0,1,0,0-18.93Z"/><circle class="cls-43" cx="170.68" cy="147.97" r="58.15"/><rect class="cls-43" x="229.75" y="60.64" width="20.79" height="34.44" rx="9.31" ry="9.31" transform="translate(125.39 -147) rotate(45)"/><rect class="cls-43" x="91.46" y="198.93" width="20.79" height="34.44" rx="9.31" ry="9.31" transform="translate(182.67 -8.72) rotate(45)"/><rect class="cls-43" x="258.39" y="129.78" width="20.79" height="34.44" rx="9.31" ry="9.31" transform="translate(415.78 -121.78) rotate(90)"/><rect class="cls-43" x="62.82" y="129.78" width="20.79" height="34.44" rx="9.31" ry="9.31" transform="translate(220.22 73.78) rotate(90)"/><rect class="cls-43" x="229.75" y="198.93" width="20.79" height="34.44" rx="9.31" ry="9.31" transform="translate(562.79 199.17) rotate(135)"/><rect class="cls-43" x="91.46" y="60.64" width="20.79" height="34.44" rx="9.31" ry="9.31" transform="translate(228.93 60.89) rotate(135)"/><rect class="cls-43" x="160.6" y="227.56" width="20.79" height="34.44" rx="9.31" ry="9.31" transform="translate(342 489.56) rotate(-180)"/><rect class="cls-43" x="160.6" y="32" width="20.79" height="34.44" rx="9.31" ry="9.31" transform="translate(342 98.44) rotate(-180)"/><path class="cls-42" d="M1921,192.12a32.56,32.56,0,0,0-48.2,15.2c-.75-.07-1.51-.11-2.28-.11A22.37,22.37,0,0,0,1849,223.63c-.26,0-.53,0-.8,0a14.16,14.16,0,1,0,9.75,24.43,22.35,22.35,0,0,0,27.19-1.53,32.63,32.63,0,0,0,34.8.77c.35.28.73.54,1.1.79Z"/><rect class="cls-24" x="1" y="923" width="1920" height="157"/><path class="cls-44" d="M1323,272.72c-82-41.28-70.44-63.32-214-49.72-61.52,5.83-206.07,256.14-337.52,431.84h0s103-81.76,166-168.75,125-145.5,223.77-156,218.58,116.48,515.63,151.23h0C1509.88,407.57,1379.55,301.19,1323,272.72Z"/><rect class="cls-28" y="923" width="1920" height="8.38"/><rect class="cls-45" y="931.38" width="1920" height="8.38"/><rect class="cls-46" x="50" y="798.54" width="10" height="129.33" rx="5" ry="5"/><rect class="cls-46" x="358" y="798.54" width="10" height="129.33" rx="5" ry="5"/><rect class="cls-46" x="666" y="798.54" width="10" height="129.33" rx="5" ry="5"/><rect class="cls-46" x="974" y="798.54" width="10" height="129.33" rx="5" ry="5"/><rect class="cls-46" x="1282" y="798.54" width="10" height="129.33" rx="5" ry="5"/><rect class="cls-46" x="1590" y="798.54" width="10" height="129.33" rx="5" ry="5"/><rect class="cls-46" x="1898" y="798.54" width="10" height="129.33" rx="5" ry="5"/><path class="cls-25" d="M728.7,857.57s-3.47,7-1.76,11.61,7.26,6.23,7.26,6.23,2-6.63.74-10.3-6.24-7.54-6.24-7.54"/><path class="cls-24" d="M730.34,864.09s-1.94,3.9-1,6.46,4,3.47,4,3.47,1.12-3.69.41-5.73-3.46-4.2-3.46-4.2"/><path class="cls-25" d="M712.18,873.56s4.6,6.32,9.48,6.94,8.88-3.55,8.88-3.55-4.95-4.85-8.79-5.43-9.57,2-9.57,2"/><path class="cls-24" d="M718.72,875.14s2.56,3.51,5.27,3.85,4.94-2,4.94-2-2.75-2.7-4.89-3-5.32,1.14-5.32,1.14"/><path class="cls-25" d="M738.9,888.06s-5.52,1-7.45,3.92-.5,6.83-.5,6.83,4.67-1.66,6.25-3.95,1.7-6.8,1.7-6.8"/><path class="cls-24" d="M735.83,891.78s-3.07.54-4.14,2.18a4.73,4.73,0,0,0-.28,3.79s2.6-.92,3.48-2.19a8.82,8.82,0,0,0,.94-3.78"/><path class="cls-25" d="M720.28,884.83s-1.48,5.4.36,8.41,6,3.38,6,3.38.49-4.94-.9-7.35-5.42-4.44-5.42-4.44"/><path class="cls-24" d="M722.32,889.19s-.82,3,.2,4.68a4.75,4.75,0,0,0,3.32,1.88s.27-2.75-.5-4.09a8.86,8.86,0,0,0-3-2.47"/><path class="cls-25" d="M703.43,891.37s1.93,6.62,5.8,8.59,8.43-.29,8.43-.29-2.66-5.5-5.67-7.13-8.56-1.17-8.56-1.17"/><path class="cls-24" d="M708.39,894.63s1.07,3.68,3.22,4.78,4.69-.16,4.69-.16-1.48-3.06-3.15-4-4.76-.65-4.76-.65"/><path class="cls-25" d="M700,907.8s6.46,3.85,11,2.55,6.51-6.49,6.51-6.49-6.2-2.42-9.82-1.48S700,907.8,700,907.8"/><path class="cls-24" d="M706.37,906.72s3.59,2.14,6.11,1.42,3.62-3.61,3.62-3.61-3.45-1.34-5.45-.82-4.28,3-4.28,3"/><path class="cls-25" d="M763.65,853.76s-7.62-1.22-11.46,1.74-3.75,8.66-3.75,8.66,6.84,0,9.93-2.31,5.28-8.09,5.28-8.09"/><path class="cls-24" d="M758,857.21s-4.24-.68-6.38,1-2.08,4.82-2.08,4.82,3.8,0,5.52-1.28,2.94-4.5,2.94-4.5"/><path class="cls-25" d="M743.74,842.86s-4.61,6.19-3.77,11,5.95,7.33,5.95,7.33,3.12-6.08,2.54-9.87-4.72-8.43-4.72-8.43"/><path class="cls-24" d="M744.17,849.49s-2.57,3.44-2.1,6.1,3.31,4.07,3.31,4.07,1.74-3.38,1.42-5.48-2.63-4.69-2.63-4.69"/><path class="cls-25" d="M781.43,896.19s-5.38-1.56-8.41.23-3.48,5.91-3.48,5.91,4.93.57,7.36-.78,4.53-5.36,4.53-5.36"/><path class="cls-24" d="M777,898.17s-3-.87-4.68.13a4.72,4.72,0,0,0-1.92,3.28s2.74.32,4.09-.43a8.71,8.71,0,0,0,2.51-3"/><path class="cls-25" d="M784.6,910.36s-2.76-4.87-6.19-5.7-6.6,1.82-6.6,1.82,3.13,3.84,5.82,4.56,7-.68,7-.68"/><path class="cls-24" d="M780.07,908.71s-1.53-2.7-3.44-3.16a4.74,4.74,0,0,0-3.67,1s1.74,2.14,3.24,2.53a8.52,8.52,0,0,0,3.87-.38"/><path class="cls-25" d="M791.57,882.26s-7.91-2.77-12.59-.34-5.67,8.55-5.67,8.55,7.32,1.26,11.06-.57,7.2-7.64,7.2-7.64"/><path class="cls-24" d="M784.84,884.86s-4.4-1.54-7-.18-3.15,4.75-3.15,4.75,4.07.7,6.15-.32,4-4.25,4-4.25"/><path class="cls-25" d="M775.34,868.88s-6.74,1.46-9,5.17-.3,8.44-.3,8.44,5.67-2.27,7.51-5.16,1.76-8.45,1.76-8.45"/><path class="cls-24" d="M771.74,873.6s-3.75.81-5,2.87-.16,4.69-.16,4.69,3.15-1.26,4.17-2.87,1-4.69,1-4.69"/><path class="cls-25" d="M759.19,864.3s-4.29,6.17-3.31,10.79,6,6.95,6,6.95,2.84-6,2.16-9.69-4.87-8.05-4.87-8.05"/><path class="cls-24" d="M759.82,870.74s-2.38,3.43-1.84,6,3.35,3.86,3.35,3.86,1.58-3.35,1.2-5.39-2.71-4.47-2.71-4.47"/><path class="cls-26" d="M787.44,933.45a5,5,0,0,1-.68-2.25l-14.63,4.27,5.2-13.59h-1.4L770,935.49l-20.49,7-.89-30.2,6.16-5.69,14.82-.21.69-1.37h-13.8l14-12.93-.47-2.11-9.46,8.3,3.79-14.59-1.15.46-5,16.2-9.32,8.18-2.12-45.33h-2.11l-.23,23.25-11.28-10.33-2.11.23L743.93,889,743,918.74,730.3,908.25l-1.17-10.1-.94-1.65v10.34l-8.69-5.64-2.35-.23L743,921.81l-.17,14-25.72-12-3.53-8.45-1.87-.47,3.29,8.22-13.63-4.23.24.94,24.19,11.51-13.39.94,1.65,1.41,14.56-.71,14,7.71-.39,62.52,8.79,0-.94-56.87Z"/><path class="cls-25" d="M694.75,928.32s4.08,5.55,8.39,6.08,7.82-3.17,7.82-3.17-4.39-4.26-7.78-4.75-8.43,1.84-8.43,1.84"/><path class="cls-24" d="M700.52,929.68s2.28,3.09,4.67,3.38,4.35-1.76,4.35-1.76-2.44-2.37-4.33-2.64-4.69,1-4.69,1"/><path class="cls-25" d="M697.16,944.93s7.38,1.4,11.21-1.38,3.88-8.33,3.88-8.33-6.66-.14-9.73,2-5.36,7.73-5.36,7.73"/><path class="cls-24" d="M702.78,941.73s4.1.78,6.23-.77,2.16-4.63,2.16-4.63-3.7-.08-5.41,1.1-3,4.3-3,4.3"/><path class="cls-25" d="M684.63,909.64s1.93,7.26,6.09,9.51,9.19-.09,9.19-.09-2.75-6.07-6-7.92-9.29-1.5-9.29-1.5"/><path class="cls-24" d="M690,913.32s1.07,4,3.38,5.29,5.11-.05,5.11-.05-1.53-3.37-3.33-4.4-5.16-.84-5.16-.84"/><path class="cls-25" d="M767.82,909.93s-1.49,5.4.34,8.41,5.94,3.4,5.94,3.4.52-4.94-.87-7.35-5.41-4.46-5.41-4.46"/><path class="cls-24" d="M769.86,914.3s-.83,3,.18,4.68a4.77,4.77,0,0,0,3.31,1.89s.28-2.75-.49-4.09a8.71,8.71,0,0,0-3-2.48"/><path class="cls-25" d="M813.88,930.07s-6.52-6.43-12.27-6.22-9.59,5.8-9.59,5.8,6.64,4.66,11.19,4.6,10.67-4.18,10.67-4.18"/><path class="cls-24" d="M806,929.49s-3.62-3.57-6.82-3.45-5.33,3.22-5.33,3.22,3.69,2.59,6.22,2.56,5.93-2.33,5.93-2.33"/><path class="cls-25" d="M795,914.43s-6.75,2.77-8.39,7.06,1.25,8.83,1.25,8.83,5.49-3.41,6.87-6.76.27-9.13.27-9.13"/><path class="cls-24" d="M792.14,920s-3.75,1.54-4.66,3.92.69,4.92.69,4.92,3.06-1.9,3.82-3.77.15-5.07.15-5.07"/><path class="cls-25" d="M755.27,927.12s6,3.54,10.15,2.33,6-6,6-6-5.73-2.22-9.06-1.35-7.09,5-7.09,5"/><path class="cls-24" d="M761.15,926.11s3.32,2,5.65,1.3,3.33-3.34,3.33-3.34-3.18-1.24-5-.75-3.94,2.79-3.94,2.79"/><path class="cls-25" d="M720.92,907.74s-4.17,5.54-3.43,9.84,5.32,6.62,5.32,6.62,2.83-5.46,2.33-8.87-4.22-7.59-4.22-7.59"/><path class="cls-24" d="M721.29,913.7s-2.33,3.08-1.91,5.47,3,3.68,3,3.68,1.58-3,1.3-4.93-2.34-4.22-2.34-4.22"/><path class="cls-25" d="M728.44,946.84s-1.26-6.83-4.92-9.19-8.47-.57-8.47-.57,2.1,5.78,5,7.72,8.44,2,8.44,2"/><path class="cls-24" d="M723.81,943.07s-.7-3.8-2.74-5.11-4.7-.31-4.7-.31,1.16,3.21,2.75,4.28,4.69,1.14,4.69,1.14"/><path class="cls-25" d="M803.1,944.52s-1.26-6.82-4.92-9.19-8.47-.56-8.47-.56,2.1,5.77,4.95,7.71,8.44,2,8.44,2"/><path class="cls-24" d="M798.47,940.75s-.7-3.79-2.74-5.11-4.7-.31-4.7-.31,1.16,3.21,2.75,4.29,4.69,1.13,4.69,1.13"/><path class="cls-46" d="M1920,804.87c-4.28-.92-14.14-3.12-14.5-6.33a2.27,2.27,0,0,0-2.72-2.38,2.07,2.07,0,0,0-2.28,2.38c-.08,1.61-5.93,3.73-8,4.43a138.45,138.45,0,0,1-21.4,4.88c-23.52,3.9-47.48,5.46-71.28,6.51q-45.37,2-90.83.42c-25.06-.85-50.25-2.29-75.09-5.86-8.83-1.27-17.74-2.71-26.29-5.29-2.39-.72-10-3-10.09-5.09a2.5,2.5,0,0,0-5,0c-.08,1.61-5.93,3.73-8,4.43a138.45,138.45,0,0,1-21.4,4.88c-23.52,3.9-47.48,5.46-71.28,6.51q-45.37,2-90.83.42c-25.06-.85-50.25-2.29-75.09-5.86-8.83-1.27-17.74-2.71-26.29-5.29-2.39-.72-10-3-10.09-5.09a2.5,2.5,0,0,0-5,0c-.08,1.61-5.93,3.73-8,4.43a138.45,138.45,0,0,1-21.4,4.88c-23.52,3.9-47.48,5.46-71.28,6.51q-45.37,2-90.83.42c-25.06-.85-50.25-2.29-75.09-5.86-8.83-1.27-17.74-2.71-26.29-5.29-2.39-.72-10-3-10.09-5.09a2.5,2.5,0,0,0-5,0c-.08,1.61-5.93,3.73-8,4.43a138.45,138.45,0,0,1-21.4,4.88c-23.52,3.9-47.48,5.46-71.28,6.51q-45.37,2-90.83.42c-25.06-.85-50.25-2.29-75.09-5.86-8.83-1.27-17.74-2.71-26.29-5.29-2.39-.72-10-3-10.09-5.09a2.5,2.5,0,0,0-5,0c-.08,1.61-5.93,3.73-8,4.43a138.45,138.45,0,0,1-21.4,4.88c-23.52,3.9-47.48,5.46-71.28,6.51q-45.37,2-90.83.42c-25.06-.85-50.25-2.29-75.09-5.86-8.83-1.27-17.74-2.71-26.29-5.29-2.39-.72-10-3-10.09-5.09a2.5,2.5,0,0,0-5,0c-.08,1.61-5.93,3.73-8,4.43a138.45,138.45,0,0,1-21.4,4.88c-23.52,3.9-47.48,5.46-71.28,6.51q-45.37,2-90.83.42c-25.06-.85-50.25-2.29-75.09-5.86-8.83-1.27-17.74-2.71-26.29-5.29-2.39-.72-10-3-10.09-5.09a2.5,2.5,0,0,0-5,0c-.08,1.61-5.93,3.73-8,4.43a138.45,138.45,0,0,1-21.4,4.88C15.43,809.12,7.73,810.12,0,811v5c7.6-.82,15.18-1.81,22.73-3,8.57-1.37,17.42-2.86,25.55-6A22.87,22.87,0,0,0,55,803.27a19.25,19.25,0,0,0,4.74,2.81c6.3,2.83,13.25,4.26,20,5.55,24.35,4.65,49.35,6.33,74.07,7.52,32.91,1.6,65.92,1.72,98.85.5,26.07-1,52.28-2.58,78.07-6.71,8.57-1.37,17.42-2.86,25.55-6a22.87,22.87,0,0,0,6.73-3.63,19.25,19.25,0,0,0,4.74,2.81c6.3,2.83,13.25,4.26,20,5.55,24.35,4.65,49.35,6.33,74.07,7.52,32.91,1.6,65.92,1.72,98.85.5,26.07-1,52.28-2.58,78.07-6.71,8.57-1.37,17.42-2.86,25.55-6a22.87,22.87,0,0,0,6.73-3.63,19.25,19.25,0,0,0,4.74,2.81c6.3,2.83,13.25,4.26,20,5.55,24.35,4.65,49.35,6.33,74.07,7.52,32.91,1.6,65.92,1.72,98.85.5,26.07-1,52.28-2.58,78.07-6.71,8.57-1.37,17.42-2.86,25.55-6a22.87,22.87,0,0,0,6.73-3.63,19.25,19.25,0,0,0,4.74,2.81c6.3,2.83,13.25,4.26,20,5.55,24.35,4.65,49.35,6.33,74.07,7.52,32.91,1.6,65.92,1.72,98.85.5,26.07-1,52.28-2.58,78.07-6.71,8.57-1.37,17.42-2.86,25.55-6a22.87,22.87,0,0,0,6.73-3.63,19.25,19.25,0,0,0,4.74,2.81c6.3,2.83,13.25,4.26,20,5.55,24.35,4.65,49.35,6.33,74.07,7.52,32.91,1.6,65.92,1.72,98.85.5,26.07-1,52.28-2.58,78.07-6.71,8.57-1.37,17.42-2.86,25.55-6a22.87,22.87,0,0,0,6.73-3.63,19.25,19.25,0,0,0,4.74,2.81c6.3,2.83,13.25,4.26,20,5.55,24.35,4.65,49.35,6.33,74.07,7.52,32.91,1.6,65.92,1.72,98.85.5,26.07-1,52.28-2.58,78.07-6.71,8.57-1.37,17.42-2.86,25.55-6a23.09,23.09,0,0,0,6.67-3.57c4,3.95,11.91,5.6,17,6.68Z"/><path class="cls-24" d="M336.78,858A104.51,104.51,0,1,1,232.27,753.46,104.51,104.51,0,0,1,336.78,858"/><path class="cls-27" d="M293.68,845A78.65,78.65,0,1,1,215,766.39,78.65,78.65,0,0,1,293.68,845"/><path class="cls-25" d="M297.51,836.37A23.5,23.5,0,1,1,274,812.87a23.5,23.5,0,0,1,23.49,23.5"/><path class="cls-25" d="M310.35,875.64a17.46,17.46,0,1,1-17.45-17.46,17.45,17.45,0,0,1,17.45,17.46"/><path class="cls-25" d="M299,914.9a17.45,17.45,0,1,1-17.45-17.45A17.46,17.46,0,0,1,299,914.9"/><path class="cls-25" d="M200.86,890a17.46,17.46,0,1,1-17.46-17.46A17.46,17.46,0,0,1,200.86,890"/><path class="cls-25" d="M203.12,851.47A17.46,17.46,0,1,1,185.67,834a17.46,17.46,0,0,1,17.45,17.45"/><path class="cls-25" d="M243.9,811.45A17.46,17.46,0,1,1,226.45,794a17.45,17.45,0,0,1,17.45,17.45"/><polygon class="cls-26" points="274.26 882.23 294.81 885.62 278.77 879.3 302.93 865.29 231.45 889.99 229.94 867.5 283.52 841.58 259.8 847.91 259.35 836.16 257.32 848.59 229.35 858.81 226.16 811.55 221.13 870.31 194.55 858.07 192.97 846.78 192.29 857.39 174 850.39 220.41 878.72 217.42 913.6 191.61 899.62 186.19 878.62 186.19 896.91 169.26 890.81 216.62 922.97 206.42 1032.67 241.06 1032.39 235.04 943.11 291.19 913.17 276.97 917.06 276.29 903 273.58 917.91 234.29 931.98 232.47 905.15 274.26 882.23"/><path class="cls-24" d="M1894.59,653.33a38,38,0,1,1-37.95-38,37.95,37.95,0,0,1,37.95,38"/><path class="cls-27" d="M1878.94,648.64a28.56,28.56,0,1,1-28.56-28.56,28.56,28.56,0,0,1,28.56,28.56"/><path class="cls-25" d="M1880.33,645.49a8.53,8.53,0,1,1-8.53-8.53,8.53,8.53,0,0,1,8.53,8.53"/><path class="cls-25" d="M1885,659.75a6.34,6.34,0,1,1-6.33-6.34,6.33,6.33,0,0,1,6.33,6.34"/><path class="cls-25" d="M1880.88,674a6.34,6.34,0,1,1-6.34-6.34,6.33,6.33,0,0,1,6.34,6.34"/><path class="cls-25" d="M1845.23,665a6.34,6.34,0,1,1-6.34-6.34,6.34,6.34,0,0,1,6.34,6.34"/><path class="cls-25" d="M1846.06,651a6.34,6.34,0,1,1-6.34-6.34,6.34,6.34,0,0,1,6.34,6.34"/><path class="cls-25" d="M1860.86,636.44a6.34,6.34,0,1,1-6.34-6.34,6.34,6.34,0,0,1,6.34,6.34"/><polygon class="cls-26" points="1871.89 662.14 1879.35 663.37 1873.53 661.08 1882.3 655.99 1856.34 664.96 1855.79 656.79 1875.25 647.38 1866.64 649.68 1866.47 645.41 1865.74 649.92 1855.58 653.64 1854.42 636.48 1852.59 657.81 1842.94 653.37 1842.37 649.27 1842.12 653.12 1835.48 650.58 1852.33 660.87 1851.25 673.53 1841.88 668.46 1839.91 660.83 1839.91 667.47 1833.76 665.26 1850.96 676.93 1847.25 716.77 1859.83 716.67 1857.64 684.25 1878.04 673.38 1872.87 674.79 1872.63 669.68 1871.64 675.1 1857.37 680.21 1856.71 670.47 1871.89 662.14"/><path class="cls-42" d="M984.53,227.19a17.18,17.18,0,0,1,26.44-11,29.5,29.5,0,0,1,55,9.83,17.2,17.2,0,0,1,19.48,9.65A12.79,12.79,0,1,1,1091,260H991.68a17.18,17.18,0,0,1-7.15-32.81Z"/><path class="cls-42" d="M1436,246.91a19.65,19.65,0,0,0-2.32.15,26.24,26.24,0,0,0-29.79-13.84,37.49,37.49,0,0,0-75,.55,26.27,26.27,0,0,0-34.46,25c0,.48,0,.95,0,1.43h0a12.43,12.43,0,0,0,0,24.85H1436a19,19,0,0,0,0-38.09Z"/><path class="cls-34" d="M1712.29,686.22a12,12,0,0,0-12-12H1569.92a12,12,0,0,0-12,12v3.95S1559,699,1573,699s9-7,19-7,3,7,15,7,4-8,15-8,4,7,15,7,7-10,16-10,2,11,11,11,6-6,18-6,6,7,15,7,6-6,11-6c3.36,0,4.14,2.71,4.29,4.49Z"/><path class="cls-36" d="M1723,624.07c0-6.63-4.81-12-10.73-12H1595.65c-5.92,0-10.73,5.37-10.73,12V628s1,8.83,13.49,8.83,8-7,17-7,2.69,7,13.42,7,3.58-8,13.42-8,3.58,7,13.42,7,6.26-10,14.31-10,1.79,11,9.84,11,5.36-6,16.1-6,5.36,7,13.41,7,5.37-6,9.84-6c3,0,3.71,2.71,3.84,4.49Z"/><path class="cls-35" d="M1548.13,116.62l-69.91-8.07c-5.49-.49-10.13,1.53-10.49,4.6s3.71,6.09,9.17,6.87l69.91,8.07,5.57.64,6.23-5.09Z"/><path class="cls-47" d="M1548.13,116.62s8.55-13.11,9.66-14.27,1.91-1.23,2.51-.91.8.63.49,3.29l-2.18,18.91Z"/><path class="cls-47" d="M1501.06,120.49s11.73,19.63,13,22,4.8,8.24,6.61,8.34.59-6.51-.12-12.85-1.92-15.51-1.92-15.51Z"/><path class="cls-47" d="M1502.12,111.31s21.16-9,22.64-9.25,2.34-.1,2.58.3.24.82-1.42,3-6.36,8-6.36,8Z"/><path class="cls-48" d="M1468.62,113.11l5.92.69.52-4.48S1470.08,109.85,1468.62,113.11Z"/><rect class="cls-48" x="1478.64" y="109.92" width="3.01" height="4.51" rx="1.5" ry="1.5" transform="translate(22.63 -168.99) rotate(6.58)"/><rect class="cls-48" x="1482.57" y="110.38" width="3.01" height="4.51" rx="1.5" ry="1.5" transform="translate(22.71 -169.44) rotate(6.58)"/><rect class="cls-48" x="1486.5" y="110.83" width="3.01" height="4.51" rx="1.5" ry="1.5" transform="translate(22.78 -169.89) rotate(6.58)"/><rect class="cls-48" x="1490.43" y="111.29" width="3.01" height="4.51" rx="1.5" ry="1.5" transform="translate(22.86 -170.33) rotate(6.58)"/><rect class="cls-48" x="1494.36" y="111.74" width="3.01" height="4.51" rx="1.5" ry="1.5" transform="translate(22.94 -170.78) rotate(6.58)"/><rect class="cls-48" x="1498.29" y="112.19" width="3.01" height="4.51" rx="1.5" ry="1.5" transform="translate(23.02 -171.23) rotate(6.58)"/><rect class="cls-48" x="1502.22" y="112.65" width="3.01" height="4.51" rx="1.5" ry="1.5" transform="translate(23.1 -171.68) rotate(6.58)"/><rect class="cls-48" x="1506.15" y="113.1" width="3.01" height="4.51" rx="1.5" ry="1.5" transform="translate(23.17 -172.12) rotate(6.58)"/><rect class="cls-48" x="1510.08" y="113.55" width="3.01" height="4.51" rx="1.5" ry="1.5" transform="translate(23.25 -172.57) rotate(6.58)"/><rect class="cls-48" x="1514.01" y="114.01" width="3.01" height="4.51" rx="1.5" ry="1.5" transform="translate(23.33 -173.02) rotate(6.58)"/><rect class="cls-48" x="1517.94" y="114.46" width="3.01" height="4.51" rx="1.5" ry="1.5" transform="translate(23.41 -173.47) rotate(6.58)"/><rect class="cls-48" x="1521.87" y="114.91" width="3.01" height="4.51" rx="1.5" ry="1.5" transform="translate(23.48 -173.91) rotate(6.58)"/><rect class="cls-48" x="1525.8" y="115.37" width="3.01" height="4.51" rx="1.5" ry="1.5" transform="translate(23.56 -174.36) rotate(6.58)"/><rect class="cls-48" x="1529.72" y="115.82" width="3.01" height="4.51" rx="1.5" ry="1.5" transform="translate(23.64 -174.81) rotate(6.58)"/><rect class="cls-48" x="1533.65" y="116.28" width="3.01" height="4.51" rx="1.5" ry="1.5" transform="translate(23.72 -175.26) rotate(6.58)"/><rect class="cls-48" x="1537.58" y="116.73" width="3.01" height="4.51" rx="1.5" ry="1.5" transform="translate(23.8 -175.71) rotate(6.58)"/><rect class="cls-48" x="1541.51" y="117.18" width="3.01" height="4.51" rx="1.5" ry="1.5" transform="translate(23.87 -176.15) rotate(6.58)"/><path class="cls-42" d="M1558.61,123.64c23.44.73,46.84,1.76,70.23,2.83l35.09,1.58,17.53.79,8.77.4,8.77.33c5.84.25,11.69.56,17.53.76l17.54.65c5.84.25,11.69.38,17.53.58s11.69.36,17.54.49c23.38.52,46.76,1,70.19-.05-5.8.76-11.63,1.52-17.47,2.18l-17.56,1.37c-5.86.33-11.72.52-17.59.79l-4.4.18-4.4.07-8.8.14-8.8.14-8.8-.05c-5.86-.06-11.73-.06-17.6-.16-11.72-.28-23.45-.62-35.16-1.1l-8.79-.4-8.78-.47c-5.85-.33-11.71-.57-17.56-1-11.7-.8-23.4-1.55-35.07-2.58C1605.18,129.17,1581.85,126.84,1558.61,123.64Z"/><path class="cls-49" d="M1295.81,803.37s0-1.84-4.63-4-13-14-16.59-12.8-3.55,6.16-1.58,9,6.29,6.28,10.72,6.8,4.94,1,4.94,1Z"/><path class="cls-50" d="M1278,781.39l7.14,11s-4.95,3.74-7.74,4.83a22.32,22.32,0,0,1-3.48,1.18s.34,1.75,0,1.92-1.63-.84-1.6-2.56,1.45-1.82,2.07-2.27,3.61-3.25,3.61-3.25Z"/><path class="cls-51" d="M1286.08,796.33c4.06-3.87,9.41-8.82,10.6-9.18.26-.08.55-.15.85-.21V782.1a6.3,6.3,0,0,0-6.3-6.31h-1.85a8.16,8.16,0,0,0,.22-1.86,6.08,6.08,0,0,0,0-.61h.21a2.38,2.38,0,1,0-1.68-4.06,8,8,0,0,0-13.07,0,2.38,2.38,0,1,0-1.68,4.06h.22a6,6,0,0,0,0,.61,8,8,0,0,0,11.59,7.2v11H1271.3c-.59,0-1.74,1-1.44,1.44s2.17-.16,3,0,9.14,2.3,10.92,2.56A22,22,0,0,0,1286.08,796.33Z"/><path class="cls-52" d="M1285.12,785.43v-4.3a8,8,0,0,1-7.14,0v.28l6.92,10.69h.22Z"/><path class="cls-53" d="M1284.71,770.21h-6.4a2.7,2.7,0,0,0-2.7,2.7h0a2.7,2.7,0,0,0,2.7,2.69h.18A2.32,2.32,0,0,0,1278,777a2.38,2.38,0,0,0,2.38,2.38h2.2a2.38,2.38,0,0,0,1.93-3.77h.17a2.69,2.69,0,0,0,2.69-2.69h0A2.69,2.69,0,0,0,1284.71,770.21Z"/><circle class="cls-54" cx="1285.62" cy="773.14" r="0.98"/><circle class="cls-54" cx="1277.17" cy="773.14" r="0.98"/><circle class="cls-54" cx="1280.37" cy="775.28" r="0.51"/><circle class="cls-54" cx="1282.48" cy="775.28" r="0.51"/><path class="cls-53" d="M1289.78,769.21a1.74,1.74,0,0,0-1.32.61,7.8,7.8,0,0,1,1,2.85,1.43,1.43,0,0,0,.29,0,1.75,1.75,0,1,0,0-3.49Z"/><path class="cls-53" d="M1274.64,769.88a1.68,1.68,0,1,0-1.29,2.76,2.53,2.53,0,0,0,.3,0A8.05,8.05,0,0,1,1274.64,769.88Z"/><path class="cls-54" d="M1283.52,775.46c-.17,1.47-4,1.46-4.22,0,0-.37-.64-.38-.59,0,.27,2.27,5.13,2.27,5.4,0,.05-.38-.54-.37-.59,0Z"/><path class="cls-54" d="M1296.68,787.15c-2,.59-15.36,13.79-15.36,13.79a3.93,3.93,0,0,0-3.94,2.43h7.84s0-.1.23-.2,2.53-.16,5.12-.59a17,17,0,0,0,6.08-3.17c0,5.26.09,10.51-.05,15.76,0,2.18.11,4.72-1,6.69-1.35,2.46-3.82,3.1-6.37,2a4.44,4.44,0,0,1-2.2-5.75,2.73,2.73,0,0,1,1.84-1.69c.92-.2,2.56.35,2.65,1.46.06.64-.57,1.37-1,1.77-.93.87.47,2.26,1.39,1.4a4.08,4.08,0,0,0,1.45-4c-.68-2.12-3.49-3.1-5.46-2.36-4.17,1.55-4,7.94-.72,10.29a6.86,6.86,0,0,0,10.66-3.27c.9-2.39.71-5.31.75-7.82,0-1.89,0-3.77,0-5.65V797.71c1.75-1.73,3.09-3.79,3.19-6C1302.06,786.17,1298.65,786.56,1296.68,787.15Z"/><path d="M250.11,831.41a4.92,4.92,0,0,0-1.71-1.79,3.15,3.15,0,0,0-1.74-.3,3.81,3.81,0,0,0-2.11,2.65,5.89,5.89,0,0,0,.54,5,8.15,8.15,0,0,0,2.46,2.24,2.81,2.81,0,0,1,0-3.29c1.25-1.53,1.53-1.1,2.3-1.9s.75-1.14.75-1.14A9.64,9.64,0,0,0,250.11,831.41Z"/><path class="cls-55" d="M247.41,836.14h0a7.92,7.92,0,0,1,2.26-5.38,4.51,4.51,0,0,0-1.27-1.14,3.15,3.15,0,0,0-1.74-.3,3.81,3.81,0,0,0-2.11,2.65,5.89,5.89,0,0,0,.54,5,8.15,8.15,0,0,0,2.46,2.24A2.88,2.88,0,0,1,247.41,836.14Z"/><path d="M250.52,834.36a2.33,2.33,0,0,0-.85,1.07c-.34.79-.48,1.48-1.08,1.86a1,1,0,0,1-1,.16,2.16,2.16,0,0,0,1.46,1.51,5.43,5.43,0,0,0,3.1-.26S250.4,837.75,250.52,834.36Z"/><path class="cls-56" d="M262.72,832.48c-1.1-2.07-3.06-3-4-2.88s-1,.41-2.63.84a4.77,4.77,0,0,1-1.18.18,2.62,2.62,0,0,1,.85,1.3h0a3.64,3.64,0,0,0,2.79,1.14,6,6,0,0,1,3.48.69,6.4,6.4,0,0,1,1.86,1.77A10.32,10.32,0,0,0,262.72,832.48Z"/><path class="cls-57" d="M246.08,829.64s-.38.13-.26-.55a1.77,1.77,0,0,1,1.47-1.32,4.07,4.07,0,0,1,2.86,1.07c.82.77,1.11,1.21,1.2,1.77a3.09,3.09,0,0,1-.32,1.82c-.26.39-.36.47-.43.49a9.64,9.64,0,0,0-.49-1.51,4.92,4.92,0,0,0-1.71-1.79,3.06,3.06,0,0,0-1.74-.3A1.61,1.61,0,0,0,246.08,829.64Z"/><path class="cls-58" d="M255,830.62a4.77,4.77,0,0,0,1.18-.18c1.65-.43,1.73-.71,2.63-.84a3.42,3.42,0,0,1,2.14.77l.48.13a11.87,11.87,0,0,0-9.22-3.83c-4.63-.06-5.71,1.46-5.71,1.46h0a1.86,1.86,0,0,1,.84-.36,4,4,0,0,1,2.59.86h0a15.09,15.09,0,0,0,2.66,1.48c1.7.75,2.21.38,2.21.38a2,2,0,0,1,.26.18Z"/><path class="cls-58" d="M255.16,830.8l-.09-.09Z"/><path class="cls-58" d="M255.2,830.84l.13.15h0Z"/><path class="cls-59" d="M263.14,834.58a6.41,6.41,0,0,0-1.06-.83,6,6,0,0,0-3.48-.69,3.64,3.64,0,0,1-2.79-1.14h0a5.06,5.06,0,0,1-.18,3.44,6.13,6.13,0,0,1-.41.81h0s.89.8,2.88.12,2.64-1.32,4.07-1.06a3.05,3.05,0,0,1,2,1.81A7.83,7.83,0,0,0,263.14,834.58Z"/><path class="cls-35" d="M254.75,830.48s-.51.37-2.21-.38a15.09,15.09,0,0,1-2.66-1.48h0l.27.21c.82.77,1.11,1.21,1.2,1.77a3.09,3.09,0,0,1-.32,1.82c-.26.39-.36.47-.43.49h0l-.08,1.44c-.12,3.39,1.64,4.34,1.64,4.34a6.93,6.93,0,0,0,3.46-3.34C256.51,833.1,255.79,831,254.75,830.48Z"/><path class="cls-60" d="M264.37,839.32a7.75,7.75,0,0,0-.48-2.84h0a2.68,2.68,0,0,0-1.73-1.25c-1.43-.26-2.09.38-4.07,1.06a4.14,4.14,0,0,1-2,.24h0a14.87,14.87,0,0,1,4.19,2.3,22,22,0,0,1,3.54,4.19A14.23,14.23,0,0,0,264.37,839.32Z"/><path class="cls-61" d="M265.28,848.57a13.21,13.21,0,0,1-.87,2.29,53.52,53.52,0,0,1-3.65,5.69,18.56,18.56,0,0,1-1.95,4.4,9.14,9.14,0,0,0,5.05-4.73A15.8,15.8,0,0,0,265.28,848.57Z"/><path class="cls-62" d="M254.92,836.57a3.32,3.32,0,0,1-.58.65h0a9.18,9.18,0,0,0-2.29,5.8,11,11,0,0,0,2.87,7.9c1.13,1.39,2.56,2.5,3.05,4.68a5.26,5.26,0,0,1-1,4,11.28,11.28,0,0,0,3.95-3.61,19.89,19.89,0,0,0,.3-9.31,16.28,16.28,0,0,0-3-6.92,13.5,13.5,0,0,0-3.35-3.22h0"/><path class="cls-63" d="M258,855.6c-.49-2.18-1.92-3.29-3.05-4.68a11,11,0,0,1-2.87-7.9,9.18,9.18,0,0,1,2.29-5.8h0l.15-.14h0a7.91,7.91,0,0,1-1.66,1.29h0a15.07,15.07,0,0,0-3.15,2.66,10.12,10.12,0,0,0-2.5,5.34,13.17,13.17,0,0,0,4.47,3.89c3.05,1.69,3.83,2.44,4.73,3.43a4.8,4.8,0,0,1,.6,6A5.26,5.26,0,0,0,258,855.6Z"/><path class="cls-64" d="M249.07,841.77q.27-.37.6-.75a14.94,14.94,0,0,1,1.89-1.77h0a14.68,14.68,0,0,0-2.63,1.32,9.86,9.86,0,0,0-2.65,2.25,4.22,4.22,0,0,0,.53,3.28,10.49,10.49,0,0,1,1.1-2.84A6.47,6.47,0,0,1,249.07,841.77Z"/><circle class="cls-65" cx="254.17" cy="831.84" r="1.52"/><path d="M254.17,831.12H254a.46.46,0,0,1,.13.32.47.47,0,0,1-.46.47.44.44,0,0,1-.25-.08.72.72,0,1,0,.72-.72Z"/><path class="cls-66" d="M260.92,856a3.85,3.85,0,0,1-.23.38l.08.14a55.11,55.11,0,0,0,3.64-5.68,13.21,13.21,0,0,0,.87-2.29,15.32,15.32,0,0,0-1.42-5.55,22,22,0,0,0-3.54-4.19,14.87,14.87,0,0,0-4.19-2.3h0a1.89,1.89,0,0,1-.92-.36h0a6.35,6.35,0,0,1-.63.8h0a2.72,2.72,0,0,0,.34-.41,13.5,13.5,0,0,1,3.35,3.22,16.28,16.28,0,0,1,3,6.92A19.89,19.89,0,0,1,260.92,856Z"/><path class="cls-67" d="M662.78,519.23h0l.35-.07h.09a4.55,4.55,0,0,1,.52,0h.82l.27,0H665c1,.12,2.06.38,3.06.46h.59c.2,0,.41,0,.62,0h0l.15,0a4.37,4.37,0,0,0,1.17-.36,4.29,4.29,0,0,0,.51-.28c1.49-.92,2.18.7,2.38,1.26h0a2,2,0,0,1,.11.51h0a1.2,1.2,0,0,0-.45-.09,1.76,1.76,0,0,0-.84.29l-.3.2-.11.09a5.72,5.72,0,0,0-.9.8,8,8,0,0,1-2.54,1.89,5.06,5.06,0,0,0,1.62,2.25,3.16,3.16,0,0,1-.49.17,1.39,1.39,0,0,1-.65-.68s-.11.18.36.76a4.68,4.68,0,0,1-.6.1,1.89,1.89,0,0,1-.35-.65,1.32,1.32,0,0,0,.08.67,4.12,4.12,0,0,1-.7,0c0-.18,0-.4,0-.62a3.29,3.29,0,0,1-.31.56,2.87,2.87,0,0,1-.62-.22,1.64,1.64,0,0,0,.27-.8,3.7,3.7,0,0,1-.51.66l-.3-.21.1.11a3.26,3.26,0,0,1-.61.38,3.86,3.86,0,0,1-.46-.52,3.67,3.67,0,0,0,.13.66,4.4,4.4,0,0,1-.75.2,1.68,1.68,0,0,0-.07-.74,2.14,2.14,0,0,1-.22.78,5.49,5.49,0,0,1-.68,0c.37-.73.22-.9.22-.9a1.58,1.58,0,0,1-.54.89,4.76,4.76,0,0,1-.56-.06,5.32,5.32,0,0,0,1.23-3.36,7.88,7.88,0,0,1-1.3-1.2h0a12,12,0,0,1-1.37-2h0l-5.88-.14a3.36,3.36,0,0,1-1.75-1.13Zm3.36,6.2-.2-.19h0a1.18,1.18,0,0,0,.12.28Z"/><path class="cls-67" d="M624.84,513h0a3.69,3.69,0,0,1,.56-.11h.68c.59,0,1.15.15,1.71.16a3.11,3.11,0,0,0,.68,0l.08,0a2.35,2.35,0,0,0,.64-.23,2.09,2.09,0,0,0,.28-.17c.8-.55,1.23.33,1.36.63h0a1.17,1.17,0,0,1,.07.29h0a.55.55,0,0,0-.25,0,1,1,0,0,0-.45.18l-.17.12-.06.05a4.25,4.25,0,0,0-.48.47,3.29,3.29,0,0,1-2.44,1.4,3.14,3.14,0,0,0,.55,1.55h-.31a.94.94,0,0,1-.27-.52s-.09.09.08.51l-.37,0a1.28,1.28,0,0,1-.09-.44.86.86,0,0,0-.07.4,2.12,2.12,0,0,1-.4-.14c0-.1.07-.23.1-.36a3,3,0,0,1-.28.26,1.54,1.54,0,0,1-.29-.21.68.68,0,0,0,0,.14,1.35,1.35,0,0,1-.27-.09.91.91,0,0,1-.08-.44l0,0a.82.82,0,0,0-.05.41,1.94,1.94,0,0,1-.31-.17,1.19,1.19,0,0,1,.07-.4.74.74,0,0,0-.19.32,3.31,3.31,0,0,1-.3-.25,3.39,3.39,0,0,0,.2-.28,2.63,2.63,0,0,1-.32.14,1.49,1.49,0,0,1-.2-.31,1,1,0,0,0,.38-.26.31.31,0,1,1-.54-.31,1.18,1.18,0,0,0,.38,0,1.93,1.93,0,0,1-.39-.2,2.59,2.59,0,0,1,.27-1,5,5,0,0,1-.28-.42h0l-3.28.09a1.84,1.84,0,0,1-1-.57Zm.79,3,0,0h0Zm.33.25a3.49,3.49,0,0,1-.3.23l0,.17A1,1,0,0,0,626,516.27Z"/><path class="cls-68" d="M760.47,517.39c-7.58,3.37-13-3.76-13-3.76-.83-4.08-.61-7.06.21-9.21a9.44,9.44,0,0,1,2.19-.13,6.34,6.34,0,0,0-1.72-.89,8.13,8.13,0,0,1,1.28-1.76,9.82,9.82,0,0,1,1.83,1.46,4.5,4.5,0,0,0-1.25-2,8.26,8.26,0,0,1,1.53-1,9.3,9.3,0,0,1,1.24,1.3,13.45,13.45,0,0,0-.38-1.69,10.06,10.06,0,0,1,1.91-.56,3.52,3.52,0,0,0,.23,1.88,5.08,5.08,0,0,1,.5-2,14,14,0,0,1,1.73-.14c-.89,1.9-.5,2.32-.5,2.32a4.11,4.11,0,0,1,1.34-2.32,10.39,10.39,0,0,1,1.44.12C751.69,509,760.47,517.39,760.47,517.39Z"/><path class="cls-69" d="M768.6,518a3.81,3.81,0,0,0-1.32-.3,4.84,4.84,0,0,0-2.49.85c-.3.17-.6.36-.9.56l-.35.26a19.3,19.3,0,0,0-2.7,2.33c-5.18,5.33-9.83,6.93-13.8,6.55-4.49-.44-8.12-3.41-10.71-6.45h0a33.41,33.41,0,0,1-4.5-6.87h0a17.13,17.13,0,0,1,7.74-2c.56,0,1.11,0,1.67,0l.26,0c.44,0,.87.06,1.29.11l.4,0c3.12.38,6.09,1.2,9,1.47a17.23,17.23,0,0,0,3.59,0l.44-.06a13,13,0,0,0,3.49-1,14.1,14.1,0,0,0,1.53-.8c4.43-2.68,6.43,2.14,7,3.8A5.31,5.31,0,0,1,768.6,518Z"/><path class="cls-35" d="M747,528.28c-4.49-.44-8.12-3.41-10.71-6.45h0a33.41,33.41,0,0,1-4.5-6.87h0a17.13,17.13,0,0,1,7.74-2c.56,0,1.11,0,1.67,0l.26,0c.44,0,.87.06,1.29.11C741.83,516.84,741,524,747,528.28Z"/><path class="cls-67" d="M755.81,514.56c-13,13.57-23.8.61-24,.39h0a17.13,17.13,0,0,1,7.74-2c.56,0,1.11,0,1.67,0l.26,0c.57,0,1.14.08,1.69.15,3.12.38,6.09,1.2,9,1.47A17.23,17.23,0,0,0,755.81,514.56Z"/><path class="cls-67" d="M768.6,518a3.81,3.81,0,0,0-1.32-.3,4.84,4.84,0,0,0-2.49.85c-.3.17-.6.36-.9.56l-.35.26c-3.32-1.63-3.95-4-3.8-5.91a14.1,14.1,0,0,0,1.53-.8c4.43-2.68,6.43,2.14,7,3.8A5.31,5.31,0,0,1,768.6,518Z"/><path class="cls-69" d="M768.6,518a4.05,4.05,0,0,0-1.32-.3,3.27,3.27,0,0,1,1-1.23A5.28,5.28,0,0,1,768.6,518Z"/><path class="cls-35" d="M765.19,515.22a.53.53,0,0,1-.75.13.55.55,0,0,1-.12-.76.52.52,0,0,1,.75-.13A.55.55,0,0,1,765.19,515.22Z"/><path class="cls-70" d="M765.08,515.14a.4.4,0,0,1-.56.1.41.41,0,0,1-.09-.57.39.39,0,0,1,.56-.1A.42.42,0,0,1,765.08,515.14Z"/><path class="cls-71" d="M743.74,517.59s-3.29-2.3-4.18-4.68c.56,0,1.11,0,1.66,0a1.53,1.53,0,0,1,.18.18A23.92,23.92,0,0,1,743.74,517.59Z"/><path class="cls-67" d="M758.12,514.09c-5.48,7.37-14.37,3.5-14.37,3.5-2.94-3.45-4.28-6.41-4.62-8.92a10.26,10.26,0,0,1,2-1.32,6.56,6.56,0,0,0-2.1.08,8.55,8.55,0,0,1,.3-2.37,10.71,10.71,0,0,1,2.51.39,4.73,4.73,0,0,0-2.24-1.22,9.34,9.34,0,0,1,.93-1.81,9.78,9.78,0,0,1,1.86.56,14.11,14.11,0,0,0-1.24-1.41,12.76,12.76,0,0,1,1.53-1.58,3.93,3.93,0,0,0,1.21,1.68,5.44,5.44,0,0,1-.57-2.2,16,16,0,0,1,1.58-1.08c.14,2.31.73,2.49.73,2.49a4.58,4.58,0,0,1,.07-2.95,11.41,11.41,0,0,1,1.44-.67C745.36,510.9,758.12,514.09,758.12,514.09Z"/><path class="cls-67" d="M736.59,513.24l-26.84-1.37s2.23,2.87,5.15,3.39l17.41.65A4.29,4.29,0,0,0,736.59,513.24Z"/><path class="cls-68" d="M696.4,536.69c-6.37-.32-8.35,6.34-8.35,6.34a12.62,12.62,0,0,0,2.62,6.57,6.94,6.94,0,0,0,1.61-.51,4.92,4.92,0,0,1-1,1.12,6,6,0,0,0,1.39.91,8.05,8.05,0,0,0,.93-1.56,3.51,3.51,0,0,1-.36,1.79,6,6,0,0,0,1.37.3,6.76,6.76,0,0,0,.54-1.28,7.78,7.78,0,0,1,.18,1.33,9.37,9.37,0,0,0,1.53-.13,2.91,2.91,0,0,1-.34-1.43,3.89,3.89,0,0,0,.91,1.31,10.92,10.92,0,0,0,1.28-.38c-1.15-1.12-1-1.53-1-1.53a3.18,3.18,0,0,0,1.58,1.3,10.37,10.37,0,0,0,1-.49C692.31,545.16,696.4,536.69,696.4,536.69Z"/><path class="cls-69" d="M706.54,537.72a2.77,2.77,0,0,0-1-.08,3.51,3.51,0,0,0-1.73.86c-.2.15-.4.32-.6.49l-.23.22a14.69,14.69,0,0,0-1.74,2c-3.26,4.37-6.49,6-9.41,6.1-3.29.12-6.21-1.68-8.37-3.63h0a23.8,23.8,0,0,1-3.9-4.55h0a12.58,12.58,0,0,1,5.43-2.22c.4-.07.81-.12,1.21-.15l.2,0,.94,0h.3c2.29,0,4.52.28,6.7.19a12.73,12.73,0,0,0,2.6-.37l.31-.08a9.35,9.35,0,0,0,2.44-1.08,9.18,9.18,0,0,0,1-.72c3-2.38,4.87.92,5.45,2.07A4,4,0,0,1,706.54,537.72Z"/><path class="cls-35" d="M691.85,547.27c-3.29.12-6.21-1.68-8.37-3.63h0a23.8,23.8,0,0,1-3.9-4.55h0a12.58,12.58,0,0,1,5.43-2.22c.4-.07.81-.12,1.21-.15l.2,0,.94,0C687,539.47,687.1,544.76,691.85,547.27Z"/><path class="cls-67" d="M696.94,536.45c-3.84,5.24-7.88,6.16-11.1,5.65a11.25,11.25,0,0,1-1.21-.27,13.42,13.42,0,0,1-5.07-2.75h0a13.76,13.76,0,0,1,2.79-1.52,13.11,13.11,0,0,1,2.64-.71c.4-.07.81-.11,1.21-.14l.19,0,.29,0,1,0c2.29,0,4.52.28,6.69.18A12.15,12.15,0,0,0,696.94,536.45Z"/><path class="cls-67" d="M706.54,537.72a2.77,2.77,0,0,0-1-.08,3.51,3.51,0,0,0-1.73.86c-.2.15-.4.32-.6.49l-.23.22c-2.56-.86-3.24-2.53-3.31-3.92a9.18,9.18,0,0,0,1-.72c3-2.38,4.87.92,5.45,2.07A4,4,0,0,1,706.54,537.72Z"/><path class="cls-69" d="M706.54,537.72a2.78,2.78,0,0,0-1-.09,2.43,2.43,0,0,1,.61-1A4,4,0,0,1,706.54,537.72Z"/><path class="cls-35" d="M703.81,536a.39.39,0,0,1-.53.17.41.41,0,0,1-.17-.54.39.39,0,0,1,.53-.17A.4.4,0,0,1,703.81,536Z"/><path class="cls-70" d="M703.72,536a.3.3,0,0,1-.4.13.32.32,0,0,1-.12-.41.3.3,0,0,1,.4-.12A.31.31,0,0,1,703.72,536Z"/><path class="cls-67" d="M682.87,537.37,663.25,539a7.24,7.24,0,0,0,4.06,2l12.7-1.23A3.16,3.16,0,0,0,682.87,537.37Z"/><path class="cls-67" d="M682.21,538.07c6.12-3.44,11.2,2.13,11.2,2.13,1,3.38,1.05,5.89.52,7.77a7.67,7.67,0,0,1-1.83.28,5,5,0,0,0,1.51.62,7.18,7.18,0,0,1-.94,1.58,8.39,8.39,0,0,1-1.65-1.08,3.82,3.82,0,0,0,1.2,1.58,6.52,6.52,0,0,1-1.21,1,8.06,8.06,0,0,1-1.14-1,10.35,10.35,0,0,0,.45,1.39,10.23,10.23,0,0,1-1.57.62,3.11,3.11,0,0,0-.33-1.57,4.48,4.48,0,0,1-.28,1.74,12.48,12.48,0,0,1-1.44.25c.61-1.67.24-2,.24-2a3.51,3.51,0,0,1-.94,2.06,9.1,9.1,0,0,1-1.23,0C690.22,544.4,682.21,538.07,682.21,538.07Z"/><path class="cls-68" d="M741.89,564.66c-3-3.32-7.15-1-7.15-1a8.74,8.74,0,0,0-1.83,4.55,5,5,0,0,0,1,.55,3.13,3.13,0,0,1-1,.06,4.52,4.52,0,0,0,.26,1.14,5.09,5.09,0,0,0,1.2-.31,2.28,2.28,0,0,1-1,.7,4,4,0,0,0,.54.83,4.82,4.82,0,0,0,.88-.36,7.55,7.55,0,0,1-.54.74,5.28,5.28,0,0,0,.81.7,2,2,0,0,1,.51-.87,2.66,2.66,0,0,0-.17,1.09,7.55,7.55,0,0,0,.81.45c0-1.13.25-1.24.25-1.24a2.16,2.16,0,0,0,.16,1.42,4.87,4.87,0,0,0,.74.26C735.83,566.82,741.89,564.66,741.89,564.66Z"/><path class="cls-69" d="M751.37,564.33a2.06,2.06,0,0,0-.68-.11,2.56,2.56,0,0,0-1.24.51l-.44.32-.17.14a10.39,10.39,0,0,0-1.3,1.27c-2.46,2.88-4.77,3.84-6.8,3.78a8.54,8.54,0,0,1-5.64-2.93h0A16.57,16.57,0,0,1,732.6,564h0a8.84,8.84,0,0,1,3.87-1.28,8.19,8.19,0,0,1,.85,0h.14c.22,0,.44,0,.65,0h.21c1.59.1,3.13.41,4.64.46a9.29,9.29,0,0,0,1.82-.13l.22,0a6.42,6.42,0,0,0,1.74-.63,7.44,7.44,0,0,0,.75-.45c2.17-1.51,3.33.88,3.68,1.7A2.86,2.86,0,0,1,751.37,564.33Z"/><path class="cls-35" d="M740.74,570.24a8.54,8.54,0,0,1-5.64-2.93h0A16.57,16.57,0,0,1,732.6,564h0a8.84,8.84,0,0,1,3.87-1.28,8.19,8.19,0,0,1,.85,0h.14c.22,0,.44,0,.65,0C737.74,564.59,737.56,568.26,740.74,570.24Z"/><path class="cls-67" d="M744.77,563c-6.18,7.32-12.07,1.08-12.17,1h0a8.84,8.84,0,0,1,3.87-1.28,8.19,8.19,0,0,1,.85,0h.14c.29,0,.57,0,.86,0,1.59.1,3.13.41,4.64.46A9.29,9.29,0,0,0,744.77,563Z"/><path class="cls-67" d="M751.37,564.33a2.06,2.06,0,0,0-.68-.11,2.56,2.56,0,0,0-1.24.51l-.44.32-.17.14a3,3,0,0,1-2.11-2.88,7.44,7.44,0,0,0,.75-.45c2.17-1.51,3.33.88,3.68,1.7A2.86,2.86,0,0,1,751.37,564.33Z"/><path class="cls-69" d="M751.37,564.33a1.83,1.83,0,0,0-.68-.11,1.72,1.72,0,0,1,.47-.66A2.86,2.86,0,0,1,751.37,564.33Z"/><path class="cls-35" d="M749.55,563a.27.27,0,0,1-.37.09.29.29,0,0,1-.09-.39.27.27,0,0,1,.37-.09A.29.29,0,0,1,749.55,563Z"/><path class="cls-70" d="M749.49,563a.2.2,0,1,1-.34-.22.2.2,0,0,1,.28-.07A.22.22,0,0,1,749.49,563Z"/><path class="cls-67" d="M735,562.93l-13.68.18a5.06,5.06,0,0,0,2.72,1.56l8.86-.24A2.2,2.2,0,0,0,735,562.93Z"/><path class="cls-67" d="M743.78,563.7c-4.34-2.21-7.71,1.8-7.71,1.8a9.68,9.68,0,0,0-.14,5.4,5.61,5.61,0,0,0,1.27.14,3.37,3.37,0,0,1-1,.47,4.61,4.61,0,0,0,.7,1.07,6,6,0,0,0,1.11-.8,2.54,2.54,0,0,1-.79,1.13,4.43,4.43,0,0,0,.87.64,5.56,5.56,0,0,0,.76-.72,8,8,0,0,1-.27,1,6.89,6.89,0,0,0,1.1.39,2.05,2.05,0,0,1,.19-1.1,3,3,0,0,0,.24,1.19c.36.07.7.11,1,.14-.47-1.14-.23-1.38-.23-1.38a2.39,2.39,0,0,0,.71,1.4,5.92,5.92,0,0,0,.85,0C738.4,568.32,743.78,563.7,743.78,563.7Z"/><path class="cls-68" d="M675.87,491.88c-6.36.14-7.89,6.9-7.89,6.9.71,3.13,1.8,5.13,3.06,6.36a7.32,7.32,0,0,0,1.56-.62,4.66,4.66,0,0,1-.91,1.19,6.13,6.13,0,0,0,1.45.8,7.92,7.92,0,0,0,.82-1.62,3.63,3.63,0,0,1-.25,1.81,6.14,6.14,0,0,0,1.39.2,7.23,7.23,0,0,0,.45-1.31,8.64,8.64,0,0,1,.27,1.3,8.84,8.84,0,0,0,1.51-.23,2.9,2.9,0,0,1-.43-1.39,4,4,0,0,0,1,1.23,11.85,11.85,0,0,0,1.25-.46c-1.22-1-1.08-1.46-1.08-1.46a3.1,3.1,0,0,0,1.67,1.18,9.06,9.06,0,0,0,1-.56C672.37,500.61,675.87,491.88,675.87,491.88Z"/><path class="cls-69" d="M690.16,493.56a2.58,2.58,0,0,0-1-.15,3.67,3.67,0,0,0-1.78.77c-.2.15-.41.3-.62.47l-.24.2a15.39,15.39,0,0,0-1.84,1.86c-3.48,4.2-6.78,5.64-9.7,5.6-3.3-.06-6.12-2-8.18-4.08h0a24.47,24.47,0,0,1-3.66-4.75h0a12.7,12.7,0,0,1,5.54-1.94c.4,0,.81-.07,1.21-.08h.2c.32,0,.63,0,.94,0h.3c2.29.09,4.51.52,6.68.54a12.82,12.82,0,0,0,2.62-.22l.32-.07a9.24,9.24,0,0,0,2.48-.95,8.23,8.23,0,0,0,1.07-.67c3.09-2.21,4.82,1.19,5.34,2.36A3.87,3.87,0,0,1,690.16,493.56Z"/><path class="cls-35" d="M675,502.31c-3.3-.06-6.12-2-8.18-4.08h0a24.47,24.47,0,0,1-3.66-4.75h0a12.7,12.7,0,0,1,5.54-1.94c.4,0,.81-.07,1.21-.08h.2c.32,0,.63,0,.94,0C670.56,494.27,670.39,499.54,675,502.31Z"/><path class="cls-67" d="M680.64,491.78c-8.72,10.67-17.34,1.84-17.48,1.7h0a12.7,12.7,0,0,1,5.54-1.94c.4,0,.81-.07,1.21-.08h.2c.42,0,.83,0,1.24,0,2.29.09,4.51.52,6.68.54A12.82,12.82,0,0,0,680.64,491.78Z"/><path class="cls-67" d="M690.16,493.56a2.58,2.58,0,0,0-1-.15,3.67,3.67,0,0,0-1.78.77c-.2.15-.41.3-.62.47l-.24.2c-2.51-1-3.11-2.7-3.11-4.09a8.23,8.23,0,0,0,1.07-.67c3.09-2.21,4.82,1.19,5.34,2.36A3.87,3.87,0,0,1,690.16,493.56Z"/><path class="cls-69" d="M690.16,493.55a2.8,2.8,0,0,0-1-.14,2.48,2.48,0,0,1,.67-1A3.86,3.86,0,0,1,690.16,493.55Z"/><path class="cls-35" d="M687.52,491.71a.39.39,0,0,1-.54.14.41.41,0,0,1-.13-.55.39.39,0,0,1,.54-.14A.41.41,0,0,1,687.52,491.71Z"/><path class="cls-70" d="M687.43,491.66a.29.29,0,0,1-.4.1.32.32,0,0,1-.1-.41.29.29,0,0,1,.4-.1A.29.29,0,0,1,687.43,491.66Z"/><path class="cls-67" d="M666.54,492l-19.67.58a7.28,7.28,0,0,0,4,2.17l12.74-.55A3.16,3.16,0,0,0,666.54,492Z"/><path class="cls-67" d="M679.93,492.06c-6.08,3.49-4.13,10.82-4.13,10.82,2.26,2.66,4.33,4,6.17,4.54a8.2,8.2,0,0,0,1.2-1.43,5.62,5.62,0,0,1-.29,1.64,6.46,6.46,0,0,0,1.81,0,9.13,9.13,0,0,0,0-2,3.9,3.9,0,0,1,.68,1.88,7.2,7.2,0,0,0,1.45-.54,8.55,8.55,0,0,0-.23-1.51,11.45,11.45,0,0,1,.92,1.12,9.26,9.26,0,0,0,1.34-1,3,3,0,0,1-1.12-1.12,4.23,4.23,0,0,0,1.58.68,11.7,11.7,0,0,0,1-1.12c-1.71-.35-1.78-.84-1.78-.84a3.33,3.33,0,0,0,2.21.27,11.92,11.92,0,0,0,.66-1.05C681,502.34,679.93,492.06,679.93,492.06Z"/><path class="cls-67" d="M675.8,502.88s-5.95-6.32-5.12-9.29c0,0,6.38-.55,9.25-1.53"/><path class="cls-67" d="M635.86,501.21a2.45,2.45,0,0,1-1.09-1.07l6.45,1.64h0a3.64,3.64,0,0,1,.74.06l.4.08.06,0,.31.09.1,0c.73.24,1.42.59,2.12.8a5.26,5.26,0,0,0,.88.17h.1a3.51,3.51,0,0,0,.9-.08l.41-.12c1.2-.43,1.46.83,1.52,1.27h0a1.15,1.15,0,0,1,0,.38h0a1,1,0,0,0-.31-.13,1.16,1.16,0,0,0-.64.08l-.25.09-.1,0a5.7,5.7,0,0,0-.76.43,7,7,0,0,1-.79.48,3.68,3.68,0,0,0,2.44,2,3,3,0,0,1-.31.28,1.13,1.13,0,0,1-.69-.29s0,.16.5.44a4.86,4.86,0,0,1-.41.27,1.59,1.59,0,0,1-.46-.37,1,1,0,0,0,.27.47,4.18,4.18,0,0,1-.53.21,4.18,4.18,0,0,0-.2-.45,2.57,2.57,0,0,1-.06.51,2.24,2.24,0,0,1-.52,0,1.33,1.33,0,0,0-.05-.67,3.35,3.35,0,0,1-.17.65,2.3,2.3,0,0,1-.59-.17,2.12,2.12,0,0,0,.24-.51,2.88,2.88,0,0,1-.52.36,3.28,3.28,0,0,1-.81-.75l0,0-.45,0a1.45,1.45,0,0,1-.22-.5,1,1,0,0,0,0,.49,2.29,2.29,0,0,1-.51-.06c0-.12,0-.29,0-.45a2.72,2.72,0,0,1-.27.39,2.39,2.39,0,0,1-.43-.2,1.21,1.21,0,0,0,.24-.56,2.79,2.79,0,0,1-.41.45,2.16,2.16,0,0,1-.4-.4,1.61,1.61,0,0,0,.4-.3,2.49,2.49,0,0,1-.56.06,4.08,4.08,0,0,1-.43-2.14,4.45,4.45,0,0,1-.33-.51h0a8.21,8.21,0,0,1-.69-1.63h0Z"/><path class="cls-67" d="M635.16,527.68h0a7,7,0,0,1,1-.11h.33a4.38,4.38,0,0,1-.48-1.43,3.67,3.67,0,0,1,.68-.44,2.15,2.15,0,0,0-.71,0,3.44,3.44,0,0,1,.1-.8,3.48,3.48,0,0,1,.85.13,1.61,1.61,0,0,0-.75-.41,3.18,3.18,0,0,1,.31-.61,3.27,3.27,0,0,1,.63.19c-.14-.18-.3-.35-.42-.48a4.35,4.35,0,0,1,.52-.53,1.46,1.46,0,0,0,.4.57,2.06,2.06,0,0,1-.19-.75c.19-.14.37-.26.53-.36,0,.78.25.84.25.84a1.63,1.63,0,0,1,0-1c.29-.15.49-.23.49-.23a5.79,5.79,0,0,0,.18,2.45v0a2.84,2.84,0,0,1,.74-.05,2,2,0,0,0-.58-.3,2.43,2.43,0,0,1,.43-.59,3.48,3.48,0,0,1,.62.49,1.62,1.62,0,0,0-.42-.68,2.83,2.83,0,0,1,.51-.34,3,3,0,0,1,.42.44,3.71,3.71,0,0,0-.13-.57,3.39,3.39,0,0,1,.65-.19,1.41,1.41,0,0,0,.07.64,1.77,1.77,0,0,1,.18-.68,4,4,0,0,1,.58,0c-.3.64-.17.78-.17.78a1.37,1.37,0,0,1,.45-.78,4.42,4.42,0,0,1,.49,0,4.46,4.46,0,0,0-.37,5.09h0a3.93,3.93,0,0,0,.54-.2,5.12,5.12,0,0,0,.52-.27c1.5-.91,2.17.72,2.37,1.28h0a2,2,0,0,1,.11.52h0a1.46,1.46,0,0,0-.45-.1,1.66,1.66,0,0,0-.84.29l-.3.19-.12.08a6.88,6.88,0,0,0-.91.79c-1.75,1.8-3.32,2.34-4.67,2.21a5.66,5.66,0,0,1-3.61-2.17h0a11.79,11.79,0,0,1-1.35-2h0l-5.88-.21a3.35,3.35,0,0,1-1.74-1.15Z"/><path class="cls-67" d="M711.05,495.6h0a3.56,3.56,0,0,1,.61-.14l.21,0a2.59,2.59,0,0,1-.4-.85,2.51,2.51,0,0,1,.39-.32,1.44,1.44,0,0,0-.44.07,2.06,2.06,0,0,1,0-.5,2.49,2.49,0,0,1,.53,0,.92.92,0,0,0-.49-.19,1.82,1.82,0,0,1,.15-.41,2.19,2.19,0,0,1,.4.08l-.29-.27a2.48,2.48,0,0,1,.28-.36.9.9,0,0,0,.29.32,1.21,1.21,0,0,1-.17-.45,3.25,3.25,0,0,1,.3-.26c.09.48.22.5.22.5a1,1,0,0,1-.06-.62c.17-.11.29-.17.29-.17a3.31,3.31,0,0,0,.28,1.49h0a1.82,1.82,0,0,1,.45-.08,1.31,1.31,0,0,0-.38-.15,1.74,1.74,0,0,1,.23-.4,2.31,2.31,0,0,1,.42.26,1,1,0,0,0-.31-.38,1.68,1.68,0,0,1,.29-.25,1.64,1.64,0,0,1,.29.24,2.38,2.38,0,0,0-.12-.35,3.2,3.2,0,0,1,.39-.16.7.7,0,0,0,.09.39,1.12,1.12,0,0,1,.06-.43,2.85,2.85,0,0,1,.35-.08c-.14.42,0,.5,0,.5a.82.82,0,0,1,.22-.52h.3a2.77,2.77,0,0,0,.13,3.17h0a1.91,1.91,0,0,0,.32-.16l.3-.2c.87-.67,1.4.28,1.56.61h0a1.34,1.34,0,0,1,.1.32h0a.69.69,0,0,0-.28,0,1,1,0,0,0-.5.24l-.18.14-.06.06a3.78,3.78,0,0,0-.51.55,3.65,3.65,0,0,1-2.72,1.71,3.51,3.51,0,0,1-2.39-1.08h0a7.08,7.08,0,0,1-1-1.14h0l-3.64.3a2.12,2.12,0,0,1-1.16-.58Z"/></g></g></g></svg>