<svg xmlns="http://www.w3.org/2000/svg" viewBox="0 0 395.49 122.08"><defs><style>.cls-1{fill:#ff5300;}.cls-2{fill:#5e285e;}</style></defs><title>Ativo 3</title><g id="Camada_2" data-name="Camada 2"><g id="Camada_1-2" data-name="Camada 1"><path class="cls-1" d="M6.51,111.81c-1-.28-3.06-.86-3.06-1.63,0-1.11,1.67-1.36,2.27-1.36l5.1-.08v-3.25l-5.1-.08A6,6,0,0,0,1.32,107,4.37,4.37,0,0,0,0,110.18c0,3.43,3.94,4.47,5.62,4.92,1.38.35,3,.88,3,1.82,0,.76-.29,1.64-2.51,1.68l-5.32.08V122l5.33.08h.07a6.17,6.17,0,0,0,4.49-1.6A4.84,4.84,0,0,0,12,116.92C12,113.23,8,112.2,6.51,111.81Z"/><path class="cls-1" d="M24,105.41H22.34c-.05,0-5.44.06-5.44,5.23v6.21c0,5.17,5.39,5.23,5.44,5.23H24c5,0,5.28-5.16,5.28-5.23v-6.23C29.3,110.57,29,105.41,24,105.41Zm1.72,11.44A1.81,1.81,0,0,1,24,118.73H22.34c-1.63,0-1.86-1.73-1.88-1.88v-6.16c0-.08.22-1.94,1.88-1.94H24a1.84,1.84,0,0,1,1.75,1.89Z"/><path class="cls-1" d="M36.46,103.36v2.09H34.35v3.38h2.11v13.23h3.42V108.83h2.19v-3.38H39.88v-2.68a1.66,1.66,0,0,1,1.65-1.59H44v-3.3l-2.48-.07C38.63,97.81,36.46,100.74,36.46,103.36Z"/><path class="cls-1" d="M54.1,100.88H52.67l-2,2.71v1.79H49.1v3.4h1.54v7.68c0,2.64,2.17,5.6,5.09,5.6h0l2.09-.09V118.7h-2.1a1.67,1.67,0,0,1-1.63-1.64v-8.28h3.73v-3.4H54.1Z"/><polygon class="cls-1" points="76.85 116.99 74.55 107.78 71.35 107.78 69.06 116.99 66.22 105.45 62.73 105.45 66.85 122.06 71.29 122.06 72.95 115.31 74.61 122.06 79.05 122.06 83.17 105.45 79.72 105.45 76.85 116.99"/><path class="cls-1" d="M94.49,105.44H92.28a5.2,5.2,0,0,0-4.56,2.92l-.22.45,3,1.49.21-.49a1.77,1.77,0,0,1,1.56-1h2.21a1.63,1.63,0,0,1,1.62,1.59v1.72H92.28a5,5,0,1,0,0,9.93h2.21a4.31,4.31,0,0,0,2.05-.52l.45.52h2.54V110.41A5,5,0,0,0,94.49,105.44Zm1.62,10.07v1.58a1.6,1.6,0,0,1-1.62,1.58H92.28a1.58,1.58,0,1,1,0-3.16Z"/><path class="cls-1" d="M107.93,106l-.49-.51h-2.52v16.61h3.41V110.41a1.64,1.64,0,0,1,1.67-1.59l2.7-.08v-3.29H110A4.36,4.36,0,0,0,107.93,106Z"/><path class="cls-1" d="M126.63,117.69a1.73,1.73,0,0,1-1.56,1h-2.21a1.65,1.65,0,0,1-1.62-1.58v-1.72h3.83a5,5,0,1,0,0-9.92h-2.21c-2.89,0-5,2.93-5,5.55v6.09a5,5,0,0,0,5,5h2.21a5.09,5.09,0,0,0,4.55-2.94l.21-.44-3-1.48Zm-5.39-5.7v-1.58a1.61,1.61,0,0,1,1.62-1.59h2.21a1.59,1.59,0,1,1,0,3.17Z"/><path class="cls-2" d="M256.39,45.88a23.92,23.92,0,0,0-17.25-7H218.85a4.85,4.85,0,0,0-4.17,1.8,6.54,6.54,0,0,0,0,8.21,4.84,4.84,0,0,0,4.17,1.79h20.29a12.15,12.15,0,0,1,12.61,12.61v1.41a12.14,12.14,0,0,1-12.61,12.61H218.85a11.35,11.35,0,0,1-8.44-3.55A12.44,12.44,0,0,1,207,64.73V6.39l0-.66a5.43,5.43,0,0,0-1.74-4.18,6.05,6.05,0,0,0-8.09,0,5.42,5.42,0,0,0-1.75,4.18s0,.37,0,.42V50.06s0,.31,0,.31V64.73A24.23,24.23,0,0,0,202.23,82a23.11,23.11,0,0,0,16.62,7h20.29a24.63,24.63,0,0,0,9.6-1.85A24.09,24.09,0,0,0,256.39,82a23.68,23.68,0,0,0,5.14-7.66,24.49,24.49,0,0,0,1.86-9.6V63.32a25.31,25.31,0,0,0-1.86-9.69A23.8,23.8,0,0,0,256.39,45.88Z"/><path class="cls-2" d="M338.16,53.73A24,24,0,0,0,333.3,46a22.42,22.42,0,0,0-7.14-5.09,21.22,21.22,0,0,0-8.67-1.82h-23.6a21.09,21.09,0,0,0-8.65,1.82A22.24,22.24,0,0,0,278.09,46a23.62,23.62,0,0,0-4.86,7.75,26.53,26.53,0,0,0-1.78,9.73v1.91a24.16,24.16,0,0,0,1.77,9.28,24.66,24.66,0,0,0,4.87,7.51,22.06,22.06,0,0,0,7.15,5.08,20.91,20.91,0,0,0,8.65,1.83h38.68a4.28,4.28,0,0,0,3.75-1.69,7.13,7.13,0,0,0,0-8.32,4.28,4.28,0,0,0-3.75-1.69H293.89a11.88,11.88,0,0,1-11.8-12V63.46a12.76,12.76,0,0,1,3.48-8.88,11.05,11.05,0,0,1,8.32-3.82h23.6a11,11,0,0,1,8.31,3.82,13.07,13.07,0,0,1,2.52,3.88l.6,1.43H294.85a4.18,4.18,0,1,0,0,8.36h39.67A4.34,4.34,0,0,0,338,66.83c2.27-2.57,1.62-7.74,1.62-7.75A25.66,25.66,0,0,0,338.16,53.73Z"/><path class="cls-2" d="M67.19,39.67a6.21,6.21,0,0,0-8.32,0,5.81,5.81,0,0,0-1.82,4.74V83.19a5.08,5.08,0,0,0,1.77,4.35,6.79,6.79,0,0,0,8.41,0A5.06,5.06,0,0,0,69,83.19V44.41A5.81,5.81,0,0,0,67.19,39.67Z"/><path class="cls-2" d="M179.55,46a25.17,25.17,0,0,0-7.83-5.31,23.39,23.39,0,0,0-9.34-1.93H150.63A21.84,21.84,0,0,0,140.74,41a30.44,30.44,0,0,0-8,5.69l-.74.74-.72-.74a31.06,31.06,0,0,0-8-5.69,21.87,21.87,0,0,0-9.89-2.25H101.67A24,24,0,0,0,84.26,46a24.71,24.71,0,0,0-5.15,7.84,24.36,24.36,0,0,0-1.85,9.35V78.59h0v4.74A4.93,4.93,0,0,0,79,87.56a6.61,6.61,0,0,0,8.16,0,4.93,4.93,0,0,0,1.73-4.23v-14h0V63.18a11.16,11.16,0,0,1,2.59-7.24A15.38,15.38,0,0,1,98,51.33l.18-.07h15.28a12.78,12.78,0,0,1,8.76,3.42,11.05,11.05,0,0,1,3.86,8.5V82.75a5.78,5.78,0,0,0,1.82,4.74,6.18,6.18,0,0,0,8.32,0A5.79,5.79,0,0,0,138,82.75V63.18A11.37,11.37,0,0,1,140.52,56a14.69,14.69,0,0,1,6.41-4.62l.17-.07h15.28a13.07,13.07,0,0,1,8.85,3.42,10.92,10.92,0,0,1,4,8.5V83.41a4.91,4.91,0,0,0,1.73,4.15,6.61,6.61,0,0,0,8.16,0,4.85,4.85,0,0,0,1.72-4.15V63.18a23.47,23.47,0,0,0-1.92-9.33A25.29,25.29,0,0,0,179.55,46Z"/><path class="cls-2" d="M44.79,77.34H24.54a12,12,0,0,1-8.68-3.73,12,12,0,0,1-3.73-8.71V11.28h0V6.15a5.63,5.63,0,0,0-1.77-4.6,6,6,0,0,0-8.08,0A5.62,5.62,0,0,0,.5,6.15V64.9A23.9,23.9,0,0,0,7.66,82.06a24.63,24.63,0,0,0,7.66,5.06A23.76,23.76,0,0,0,24.57,89H44.79a5.18,5.18,0,0,0,4.36-1.73,6.48,6.48,0,0,0,0-8.17A5.18,5.18,0,0,0,44.79,77.34Z"/><path class="cls-2" d="M394,40.49a5.57,5.57,0,0,0-4.54-1.75H371.91a22.51,22.51,0,0,0-9.24,1.93A25.39,25.39,0,0,0,355,45.88a25.69,25.69,0,0,0-5.23,7.68,22.86,22.86,0,0,0-1.92,9.24v18h0V83a5.54,5.54,0,0,0,1.75,4.54,5.92,5.92,0,0,0,7.94,0A5.54,5.54,0,0,0,359.31,83V75h0V62.8a13,13,0,0,1,12.62-12.61h17.51A5.57,5.57,0,0,0,394,48.45a5.94,5.94,0,0,0,0-8Z"/></g></g></svg>