<svg xmlns="http://www.w3.org/2000/svg" viewBox="0 0 320 304">
  <defs>
    <style>
      .cls-1 {
        fill: rgba(0,0,0,0.04);
        stroke: rgba(0,0,0,0.16);
      }

      .cls-2 {
        fill: #fff;
      }

      .cls-3 {
        fill: #38aa00;
      }

      .cls-4 {
        fill: rgba(0,0,0,0.2);
      }

      .cls-5 {
        fill: none;
      }

      .cls-6 {
        stroke: none;
      }
    </style>
  </defs>
  <g id="smartphone" transform="translate(-8 -112)">
    <g id="fundo" class="cls-1" transform="translate(8 112)">
      <rect class="cls-6" width="320" height="304"/>
      <rect class="cls-5" x="0.5" y="0.5" width="319" height="303"/>
    </g>
    <g id="baseline-smartphone-24px" transform="translate(40 136)">
      <rect id="tela" class="cls-2" width="108" height="151" transform="translate(74 53)"/>
      <rect id="comprar" class="cls-3" width="56.197" height="8.873" rx="2" transform="translate(81.334 181.473)"/>
      <rect id="servicos" class="cls-4" width="40.669" height="8.873" transform="translate(81.334 168.163)"/>
      <rect id="preco" class="cls-4" width="23.662" height="8.873" transform="translate(81.334 153.374)"/>
      <rect id="titulo" class="cls-4" width="56.197" height="8.873" transform="translate(81.334 138.586)"/>
      <rect id="foto" class="cls-4" width="92.37" height="73.476" rx="3" transform="translate(81.827 59.87)"/>
      <g id="baseline-train-24px" transform="translate(103.87 72.466)">
        <path id="Path_9" data-name="Path 9" class="cls-2" d="M20.095,2C12.047,2,4,3.006,4,10.047V29.16A7.049,7.049,0,0,0,11.041,36.2L8.024,39.219v1.006H12.51L16.534,36.2h7.585l4.024,4.024h4.024V39.219L29.148,36.2a7.049,7.049,0,0,0,7.041-7.041V10.047C36.189,3.006,28.987,2,20.095,2ZM11.041,32.178a3.018,3.018,0,1,1,3.018-3.018A3.014,3.014,0,0,1,11.041,32.178Zm7.041-14.083H8.024V10.047H18.083Zm4.024,0V10.047H32.166v8.047Zm7.041,14.083a3.018,3.018,0,1,1,3.018-3.018A3.014,3.014,0,0,1,29.148,32.178Z" transform="translate(4.047 2.024)"/>
        <path id="Path_10" data-name="Path 10" class="cls-5" d="M0,0H48.284V48.284H0Z"/>
      </g>
      <path id="Path_11" data-name="Path 11" class="cls-5" d="M0,0H256V256H0Z"/>
      <path id="Path_12" data-name="Path 12" d="M133,1.107,26.333,1A21.4,21.4,0,0,0,5,22.333v192a21.4,21.4,0,0,0,21.333,21.333H133a21.4,21.4,0,0,0,21.333-21.333v-192A21.3,21.3,0,0,0,133,1.107ZM133,193H26.333V43.667H133Z" transform="translate(48.333 9.667)"/>
    </g>
  </g>
</svg>
